<svg width="19" height="19" viewBox="0 0 19 19" fill="none" xmlns="http://www.w3.org/2000/svg">
<path d="M13.6182 8.27637V6.94467C13.6182 6.55067 13.6791 6.35864 13.7649 6.25675C13.8344 6.17415 14.011 6.04785 14.5401 6.04785H16.0498H16.5498V5.54785V2.98252V2.54462L16.1157 2.48689C15.8282 2.44864 14.9047 2.36945 13.8373 2.36945C12.6411 2.36945 11.5822 2.73608 10.8208 3.48862C10.0579 4.24269 9.64941 5.32929 9.64941 6.65983V8.27637H7.68164H7.18164V8.77637V11.6523V12.1523H7.68164H9.64941V18.5H1.37029C0.889607 18.5 0.5 18.1104 0.5 17.6297V1.37029C0.5 0.889607 0.889607 0.5 1.37029 0.5H17.6297C18.1104 0.5 18.5 0.889607 18.5 1.37029V17.6297C18.5 18.1104 18.1104 18.5 17.6297 18.5H13.6182V12.1523H15.5952H16.0348L16.0911 11.7163L16.4622 8.84035L16.535 8.27637H15.9663H13.6182Z" stroke="#03948B"/>
</svg>
