<svg width="18" height="16" viewBox="0 0 18 16" fill="none" xmlns="http://www.w3.org/2000/svg">
<path d="M12.9586 7.06659C12.8593 7.09173 12.7498 7.10558 12.6312 7.10093L12.6268 7.10075V7.10074C12.1006 7.07777 11.5738 7.05913 11.0475 7.0448L11.0451 7.04474C10.8422 7.03872 10.7441 7.18332 10.7441 7.29007C10.7441 7.29027 10.7441 7.29047 10.7441 7.29067L12.9586 7.06659ZM12.9586 7.06659L11.9717 8.03533L13.0827 8.06753M12.9586 7.06659L13.0827 8.06753M13.0827 8.06753C13.082 8.2836 13.0784 8.4998 13.072 8.71609L13.0719 8.71738C13.0679 8.85943 13.0918 8.98475 13.1256 9.08929C12.9857 9.03067 12.8174 8.98969 12.6254 8.99728L12.6254 8.99726L12.6186 8.99757C12.0936 9.02188 11.5684 9.04158 11.0432 9.05642L11.0403 9.05651C10.8407 9.06273 10.7431 8.92031 10.7435 8.81269L9.74353 8.80873L13.0827 8.06753ZM13.8739 9.88583C13.9113 10.0013 13.9374 10.1437 13.9261 10.3062C13.9261 10.3063 13.9261 10.3064 13.9261 10.3064L12.9285 10.2368C12.8951 10.7171 12.8517 11.1971 12.7976 11.6777L13.8739 9.88583ZM13.8739 9.88583C14.014 9.94552 14.1841 9.98878 14.3783 9.9824M13.8739 9.88583L14.3783 9.9824M10.9743 11.9808C10.2588 12.0204 9.6589 12.6085 9.63384 13.3119C9.61324 13.8168 9.58875 14.3214 9.56147 14.8265M10.9743 11.9808L17.1922 9.88728C17.1282 10.293 17.043 10.6988 16.9369 11.1043C16.7857 11.6597 16.0561 12.2667 15.3746 12.4212C14.8797 12.5271 14.3844 12.6216 13.8895 12.7052M10.9743 11.9808C11.4859 11.9513 11.9976 11.913 12.5092 11.8661M10.9743 11.9808L12.5092 11.8661M9.56147 14.8265C9.53196 15.5288 9.9846 16.076 10.5748 15.9913C11.0049 15.9324 11.4358 15.8556 11.8665 15.7609M9.56147 14.8265L10.56 14.8804C10.5601 14.878 10.5603 14.8755 10.5604 14.873M9.56147 14.8265L10.5606 14.8685C10.5605 14.87 10.5605 14.8715 10.5604 14.873M11.8665 15.7609C12.4552 15.6252 13.1094 14.9472 13.282 14.305M11.8665 15.7609L11.6516 14.7842C11.6491 14.7848 11.6467 14.7853 11.6442 14.7859M11.8665 15.7609L11.6419 14.7864C11.6426 14.7863 11.6434 14.7861 11.6442 14.7859M13.282 14.305C13.4001 13.8386 13.5059 13.3722 13.5977 12.9053M13.282 14.305L12.3163 14.0454C12.3158 14.0471 12.3154 14.0489 12.3149 14.0506M13.282 14.305L12.3126 14.0596C12.3134 14.0566 12.3141 14.0536 12.3149 14.0506M13.5977 12.9053C13.61 12.8409 13.7934 12.721 13.8895 12.7052M13.5977 12.9053L12.9487 12.7776C13.07 12.7303 13.1665 12.6741 13.2271 12.6352C13.2987 12.5893 13.3894 12.5232 13.4764 12.4347L13.4779 12.4331C13.5202 12.3901 13.6866 12.2208 13.7614 11.9463L13.8895 12.7052M13.5977 12.9053L12.9412 12.7805C12.8419 12.8186 12.7265 12.8504 12.6007 12.8619C12.6005 12.8619 12.6004 12.8619 12.6003 12.8619L13.7632 11.9395M13.8895 12.7052L13.7632 11.9395M14.3783 9.9824C14.9152 9.96491 15.4525 9.94523 15.9903 9.92282C16.0611 9.92105 16.1214 9.92834 16.1695 9.93952C16.1164 10.2393 16.0506 10.5397 15.9722 10.8408C15.9709 10.844 15.9587 10.8761 15.9171 10.933C15.8707 10.9967 15.8017 11.0716 15.7117 11.1471C15.5247 11.3041 15.315 11.4082 15.1582 11.4449C14.706 11.5416 14.2533 11.6284 13.8007 11.7059L14.3783 9.9824ZM13.7632 11.9395L13.7389 11.7922L13.7375 11.7833L13.7268 11.7185C13.7258 11.7187 13.7249 11.7188 13.7239 11.719C13.6626 11.7292 13.604 11.7443 13.5488 11.7621C13.5436 11.7638 13.5385 11.7655 13.5333 11.7672C13.3635 11.8244 13.2283 11.9072 13.1536 11.9576C13.0875 12.0021 13.0052 12.0642 12.9257 12.1441C12.9248 12.145 12.9239 12.146 12.9228 12.1471C12.8787 12.1912 12.6798 12.3906 12.6165 12.7123M13.7632 11.9395L12.6165 12.7123M12.6165 12.7123C12.6099 12.7462 12.6031 12.7802 12.5963 12.8141L12.5092 11.8661M12.6165 12.7123L12.5092 11.8661M2.05416 11.4449C2.50679 11.5415 2.95868 11.6283 3.41079 11.7058C3.35895 11.2378 3.31785 10.7714 3.28548 10.3062C3.27414 10.1438 3.30017 10.0016 3.3375 9.88613C3.19734 9.94576 3.02713 9.9889 2.83294 9.98238M2.05416 11.4449L2.83208 9.98235C2.83237 9.98236 2.83266 9.98237 2.83294 9.98238M2.05416 11.4449C1.89737 11.4082 1.68761 11.304 1.50062 11.1471C1.41057 11.0715 1.34158 10.9966 1.29502 10.9329C1.25351 10.876 1.24124 10.8438 1.23984 10.8404C1.16143 10.5395 1.09568 10.2392 1.04258 9.93955C1.09082 9.92835 1.15135 9.92104 1.22242 9.92282M2.05416 11.4449L1.22242 9.92282M2.83294 9.98238C2.29691 9.96489 1.75995 9.94522 1.22242 9.92282M2.83294 9.98238C2.83323 9.98238 2.83351 9.98239 2.8338 9.9824L1.22242 9.92282M4.08635 9.08907C4.22606 9.03057 4.39427 8.98969 4.58602 8.99728L4.59264 8.99755L4.59264 8.99757C5.11798 9.02188 5.64314 9.04158 6.1684 9.05643L6.17129 9.05651C6.37081 9.06273 6.46826 8.92075 6.46805 8.81304C6.46525 8.30462 6.46525 7.7962 6.46805 7.28832L4.08635 9.08907ZM4.08635 9.08907C4.12009 8.98458 4.14397 8.85934 4.13991 8.71738L4.13987 8.71609C4.13342 8.4998 4.12983 8.28361 4.12917 8.06754L4.08635 9.08907ZM12.3149 14.0506C12.4152 13.6538 12.506 13.2581 12.5863 12.8632C12.0682 12.9106 11.55 12.9492 11.0318 12.9791L11.0295 12.9792C10.8026 12.9918 10.6389 13.1883 10.6332 13.3475L10.633 13.3527C10.6123 13.8602 10.5877 14.3667 10.5604 14.873M12.3149 14.0506C12.2813 14.1703 12.1805 14.3534 12.0125 14.5266C11.839 14.7055 11.6921 14.7737 11.6442 14.7859M11.6442 14.7859C11.2855 14.8646 10.9268 14.93 10.5689 14.9822M10.5689 14.9822C10.563 14.9546 10.5589 14.9184 10.5604 14.873M10.5689 14.9822C10.5256 14.9885 10.4822 14.9947 10.4389 15.0006L10.4389 15.0006L10.4328 15.0015C10.4348 15.0012 10.4368 15.0009 10.4389 15.0007C10.4641 14.9983 10.5002 15.0014 10.5372 15.0163C10.5745 15.0314 10.5922 15.05 10.5953 15.0536C10.5956 15.0539 10.5955 15.0538 10.5952 15.0533C10.5929 15.0497 10.5785 15.0272 10.5689 14.9822ZM15.9903 5.22982C16.0669 5.53311 16.1308 5.83555 16.1823 6.13794C16.1577 6.14428 16.1297 6.14962 16.0987 6.15324L14.3785 6.10313C14.1883 6.09759 14.0214 6.13949 13.8831 6.19803C13.9186 6.08475 13.9432 5.94621 13.9327 5.78869C13.9017 5.31854 13.8608 4.84863 13.8104 4.37898C14.2684 4.45545 14.7266 4.54151 15.185 4.63717C15.3419 4.67303 15.5504 4.77582 15.7354 4.93079C15.8245 5.00542 15.8923 5.07916 15.9377 5.1416C15.9768 5.19528 15.9887 5.22589 15.9903 5.22982ZM12.0133 1.47321C12.1814 1.64659 12.2818 1.82963 12.315 1.94857C12.415 2.34433 12.5052 2.74058 12.5863 3.13717C12.0682 3.08952 11.55 3.0509 11.0318 3.0213L11.0304 3.02123C10.8027 3.00854 10.6396 2.81162 10.6341 2.65347L10.6341 2.65347L10.6338 2.64643C10.6126 2.13944 10.5883 1.63318 10.5612 1.12688C10.5596 1.08142 10.5637 1.04531 10.5696 1.01771C10.928 1.06997 11.2866 1.13536 11.6448 1.2141C11.6924 1.22606 11.8396 1.29417 12.0133 1.47321ZM3.27907 5.78947C3.26882 5.94665 3.29334 6.0849 3.32885 6.19799C3.19054 6.13948 3.0237 6.09758 2.83358 6.10313L1.11427 6.15334C1.08291 6.14972 1.05467 6.14434 1.02982 6.13795C1.08135 5.83574 1.14542 5.53318 1.22218 5.22949C1.22373 5.22572 1.23557 5.19524 1.27455 5.14165C1.31992 5.07928 1.38771 5.00555 1.47686 4.93091C1.662 4.77588 1.87079 4.67302 2.02779 4.63715C2.48541 4.54153 2.94344 4.45549 3.40142 4.37902C3.35103 4.84867 3.31017 5.31856 3.27912 5.78869L3.27907 5.78947ZM6.18084 3.02127C5.66235 3.0506 5.14454 3.08924 4.62579 3.13717C4.70693 2.74073 4.79705 2.34464 4.89703 1.94903C4.93057 1.82929 5.03124 1.64609 5.19907 1.47297C5.37244 1.29413 5.51919 1.22616 5.56681 1.21415C5.92576 1.13534 6.28441 1.06993 6.64261 1.01768C6.64855 1.04534 6.65271 1.08155 6.65115 1.12716C6.62382 1.63355 6.59955 2.13953 6.57806 2.64588L6.57803 2.64588L6.57777 2.65347C6.57225 2.81187 6.40912 3.00855 6.18168 3.02123L6.18084 3.02127ZM4.62581 12.8633C5.14395 12.9106 5.66142 12.9493 6.18011 12.9791L6.18233 12.9792C6.40924 12.9918 6.57296 13.1883 6.57861 13.3475L6.57885 13.3532C6.59981 13.86 6.6241 14.3664 6.65143 14.873C6.65299 14.9185 6.64886 14.9546 6.64295 14.9822C6.28488 14.93 5.92636 14.8646 5.56754 14.7858C5.51966 14.7737 5.37285 14.7056 5.19951 14.5268C5.03168 14.3537 4.93091 14.1705 4.89724 14.0506C4.79695 13.6538 4.70615 13.2582 4.62581 12.8633Z" fill="#009E94" stroke="url(#paint0_linear)" stroke-width="2"/>
<defs>
<linearGradient id="paint0_linear" x1="0.469422" y1="16" x2="18.2332" y2="14.7722" gradientUnits="userSpaceOnUse">
<stop stop-color="#047871"/>
<stop offset="1" stop-color="#02B1A6"/>
</linearGradient>
</defs>
</svg>
