<svg width="27" height="21" viewBox="0 0 27 21" fill="none" xmlns="http://www.w3.org/2000/svg">
<path d="M2.37214 0.5H24.6262C24.642 0.5 24.6578 0.500217 24.6735 0.500649L15.8089 9.3648C15.8069 9.36674 15.8047 9.36884 15.8025 9.37111L13.4534 11.6287L2.32538 0.500634C2.34092 0.500212 2.35651 0.5 2.37214 0.5Z" fill="white" stroke="white"/>
<path d="M26.4999 18.2402L18.5431 10.2833L26.4999 2.32686C26.5003 2.3422 26.5006 2.35758 26.5006 2.37299V18.1934C26.5006 18.2091 26.5003 18.2246 26.4999 18.2402Z" fill="white" stroke="white"/>
<path d="M0.5 2.37312C0.5 2.35749 0.500212 2.3419 0.500634 2.32635L8.45761 10.2833L0.500622 18.2399C0.500208 18.2245 0.5 18.209 0.5 18.1935V2.37312Z" fill="white" stroke="white"/>
<path d="M13.4469 14.7387C13.7748 14.7387 14.1043 14.6137 14.3557 14.3644L16.7095 12.1024L24.6734 20.0662C24.6578 20.0666 24.6422 20.0668 24.6266 20.0668H2.37251C2.35671 20.0668 2.34094 20.0666 2.32522 20.0662L10.2827 12.1092L12.534 14.3604C12.534 14.3604 12.534 14.3605 12.5341 14.3605C12.786 14.6125 13.1173 14.7387 13.4469 14.7387Z" fill="white" stroke="white"/>
</svg>
