<svg width="22" height="22" viewBox="0 0 22 22" fill="none" xmlns="http://www.w3.org/2000/svg">
<path d="M10.8058 21.428L10.8058 21.4279C10.6611 21.2668 8.82034 19.2013 7.01879 16.5048C6.11801 15.1566 5.23373 13.6604 4.57612 12.1733C3.91577 10.68 3.5 9.23104 3.5 7.96752C3.5 3.85037 6.85037 0.5 10.9676 0.5C15.0847 0.5 18.4351 3.85037 18.4351 7.96752C18.4351 9.23104 18.0194 10.68 17.359 12.1733C16.7014 13.6604 15.8171 15.1566 14.9163 16.5048C13.1148 19.2013 11.2741 21.2668 11.1293 21.4279L11.1293 21.428C11.0431 21.524 10.892 21.524 10.8058 21.428ZM6.45893 7.96752C6.45893 10.4541 8.48102 12.4762 10.9676 12.4762C13.4541 12.4762 15.4762 10.4541 15.4762 7.96757C15.4762 5.48104 13.4541 3.45888 10.9676 3.45888C8.48107 3.45888 6.45893 5.48098 6.45893 7.96752Z" stroke="url(#paint0_linear)"/>
<defs>
<linearGradient id="paint0_linear" x1="3.43459" y1="22" x2="19.9233" y2="21.2326" gradientUnits="userSpaceOnUse">
<stop stop-color="#047871"/>
<stop offset="1" stop-color="#02B1A6"/>
</linearGradient>
</defs>
</svg>
