<svg width="16" height="22" viewBox="0 0 16 22" fill="none" xmlns="http://www.w3.org/2000/svg">
<path d="M7.99882 0C3.60548 0 0.03125 3.57423 0.03125 7.96752C0.03125 13.4197 7.16144 21.4239 7.46502 21.762C7.75016 22.0796 8.24799 22.079 8.53262 21.762C8.83619 21.4239 15.9664 13.4197 15.9664 7.96752C15.9663 3.57423 12.3921 0 7.99882 0ZM7.99882 11.9762C5.78842 11.9762 3.99018 10.1779 3.99018 7.96752C3.99018 5.75712 5.78846 3.95888 7.99882 3.95888C10.2092 3.95888 12.0074 5.75717 12.0074 7.96757C12.0074 10.178 10.2092 11.9762 7.99882 11.9762Z" fill="#CAC9C9"/>
</svg>
