<svg width="26" height="26" viewBox="0 0 26 26" fill="none" xmlns="http://www.w3.org/2000/svg">
<path d="M23.9137 17.066C22.3219 17.066 20.7589 16.817 19.2778 16.3276C18.552 16.08 17.6598 16.3071 17.2169 16.762L14.2935 18.9689C10.9031 17.1591 8.81472 15.0714 7.02966 11.7065L9.17161 8.85927C9.7281 8.30352 9.92771 7.4917 9.68856 6.72999C9.197 5.24109 8.94729 3.67885 8.94729 2.08636C8.94736 0.93593 8.01143 0 6.86107 0H2.08629C0.93593 0 0 0.93593 0 2.08629C0 15.2725 10.7275 25.9999 23.9137 25.9999C25.0641 25.9999 26 25.064 26 23.9136V19.1522C25.9999 18.0019 25.064 17.066 23.9137 17.066Z" fill="white"/>
</svg>
