<svg width="22" height="22" viewBox="0 0 22 22" fill="none" xmlns="http://www.w3.org/2000/svg">
<path d="M16.1506 14.2889L16.1506 14.2889L16.1551 14.2904C17.46 14.7216 18.8356 14.9405 20.2347 14.9405C20.9319 14.9405 21.5 15.5086 21.5001 16.2058V20.2347C21.5001 20.9319 20.932 21.5 20.2347 21.5C9.35332 21.5 0.5 12.6467 0.5 1.76533C0.5 1.06809 1.06809 0.5 1.76533 0.5H5.80554C6.50278 0.5 7.07085 1.06807 7.07081 1.76536V1.76539C7.07081 3.16405 7.28996 4.5376 7.72199 5.84758C7.86743 6.31482 7.74448 6.80581 7.4073 7.14254L7.3823 7.16751L7.36105 7.19574L5.54863 9.60497L5.35751 9.85903L5.5065 10.1399C7.06403 13.0759 8.90335 14.914 11.859 16.4918L12.1408 16.6422L12.3958 16.4497L14.8694 14.5824L14.8998 14.5594L14.9264 14.5321C15.0314 14.4243 15.2192 14.3184 15.4597 14.2645C15.6968 14.2114 15.9439 14.2184 16.1506 14.2889Z" stroke="url(#paint0_linear)"/>
<defs>
<linearGradient id="paint0_linear" x1="0.600002" y1="22" x2="23.3198" y2="20.5402" gradientUnits="userSpaceOnUse">
<stop stop-color="#047871"/>
<stop offset="1" stop-color="#02B1A6"/>
</linearGradient>
</defs>
</svg>
