<svg width="24" height="21" viewBox="0 0 24 21" fill="none" xmlns="http://www.w3.org/2000/svg">
<path d="M20.2778 2.96041C18.3688 1.05139 15.8306 0 13.1309 0C9.3037 0 5.80331 2.1742 4.09507 5.57447H1.66777C1.29067 5.57447 0.953936 5.79956 0.809465 6.14796C0.665132 6.4965 0.744234 6.89393 1.01093 7.16063L4.11196 10.2617C4.27044 10.4201 4.48124 10.5075 4.7055 10.5075C4.92976 10.5075 5.14042 10.4203 5.29876 10.2619L8.40007 7.16063C8.66663 6.89393 8.74573 6.4965 8.6014 6.14796C8.4572 5.79956 8.12019 5.57447 7.74309 5.57447H5.59951C7.17674 2.95945 10.0303 1.31836 13.1309 1.31836C17.9773 1.31836 21.92 5.26109 21.92 10.1074C21.92 14.9537 17.9773 18.8964 13.1309 18.8964C10.7833 18.8964 8.57613 17.9823 6.91609 16.3224C6.65873 16.0649 6.24125 16.0649 5.9839 16.3224C5.72641 16.5796 5.72641 16.9971 5.9839 17.2545C7.89278 19.1635 10.431 20.2147 13.1309 20.2147C15.8308 20.2147 18.3688 19.1635 20.278 17.2545C22.1871 15.3455 23.2384 12.8072 23.2384 10.1074C23.2384 7.40768 22.1871 4.86942 20.2778 2.96041Z" fill="url(#paint0_linear)"/>
<defs>
<linearGradient id="paint0_linear" x1="1.35192" y1="20.2147" x2="24.5653" y2="18.5546" gradientUnits="userSpaceOnUse">
<stop stop-color="#047871"/>
<stop offset="1" stop-color="#02B1A6"/>
</linearGradient>
</defs>
</svg>
