<svg width="22" height="21" viewBox="0 0 22 21" fill="none" xmlns="http://www.w3.org/2000/svg">
<g clip-path="url(#clip0)">
<path d="M21.7312 19.0224L15.475 13.3482C16.6868 11.9905 17.4165 10.2654 17.4165 8.38647C17.4165 4.03167 13.5097 0.488281 8.70822 0.488281C3.90677 0.488281 0 4.03163 0 8.38643C0 12.7412 3.90681 16.2846 8.70826 16.2846C10.7799 16.2846 12.682 15.6229 14.1789 14.5237L20.4351 20.198C20.6138 20.3601 20.8484 20.4416 21.0831 20.4416C21.3178 20.4416 21.5525 20.3601 21.7312 20.198C22.0896 19.8729 22.0896 19.3475 21.7312 19.0224ZM8.70826 14.6218C4.91695 14.6218 1.83333 11.8251 1.83333 8.38643C1.83333 4.9478 4.91695 2.15103 8.70826 2.15103C12.4996 2.15103 15.5832 4.9478 15.5832 8.38643C15.5832 11.8251 12.4995 14.6218 8.70826 14.6218Z" fill="white"/>
</g>
<defs>
<clipPath id="clip0">
<rect y="0.488281" width="22" height="19.9535" fill="white"/>
</clipPath>
</defs>
</svg>
