<svg width="19" height="19" viewBox="0 0 19 19" fill="none" xmlns="http://www.w3.org/2000/svg">
<path d="M1.37029 0.5H17.6297C18.1104 0.5 18.5 0.889607 18.5 1.37029V17.6297C18.5 18.1104 18.1104 18.5 17.6297 18.5H1.37029C0.889607 18.5 0.5 18.1104 0.5 17.6297V1.37029C0.5 0.889607 0.889607 0.5 1.37029 0.5ZM15.0752 5.66399C15.0868 5.63221 15.0978 5.60013 15.1081 5.56778L15.51 4.31357L14.377 4.98509C14.074 5.16469 13.7449 5.30434 13.3966 5.39699C12.9284 4.99749 12.3195 4.75547 11.6557 4.75547C10.1959 4.75547 9.00811 5.92294 8.97561 7.37468C7.54941 7.15596 6.29723 6.40954 5.4246 5.33881L4.96795 4.77849L4.60473 5.40344C4.37465 5.79931 4.24174 6.2599 4.24174 6.75072C4.24174 7.01571 4.2802 7.27186 4.35184 7.5138L4.25076 7.4576L4.22474 8.27721C4.22419 8.2945 4.22419 8.31038 4.2242 8.31929V8.32091C4.2242 8.94613 4.43841 9.52146 4.7975 9.97743L5.01257 10.6484C5.22097 11.2984 5.67069 11.8407 6.25662 12.1693C5.81161 12.3464 5.32618 12.4436 4.81755 12.4436C4.66067 12.4436 4.5066 12.4347 4.35608 12.4169L4.02762 13.3344C5.07006 14.0026 6.30908 14.393 7.63975 14.393H7.63977C7.63981 14.393 7.63985 14.393 7.63989 14.393C11.9842 14.3927 14.3438 10.7852 14.3438 7.68889C14.3438 7.67562 14.3438 7.66235 14.3437 7.64909C14.7285 7.33743 15.066 6.96775 15.3411 6.55537L16.2988 5.1201L15.0752 5.66399Z" stroke="url(#paint0_linear)"/>
<defs>
<linearGradient id="paint0_linear" x1="0.518182" y1="19" x2="20.1398" y2="17.7393" gradientUnits="userSpaceOnUse">
<stop stop-color="#047871"/>
<stop offset="1" stop-color="#02B1A6"/>
</linearGradient>
</defs>
</svg>
