<svg width="32" height="32" viewBox="0 0 32 32" fill="none" xmlns="http://www.w3.org/2000/svg">
<path d="M15.4675 12.812C12.8129 12.5151 10.4742 11.1749 8.87098 9.20781L8.41433 8.64748L8.05111 9.27244C7.69289 9.88878 7.48608 10.6055 7.48608 11.3696C7.48608 12.1215 7.68491 12.8276 8.03291 13.4374L7.4833 13.1318L7.45728 13.9514C7.45654 13.9749 7.45654 13.9967 7.45654 14.0119V14.0142C7.45654 15.2277 7.97518 16.3208 8.80305 17.0832L8.51075 17.0271L8.76801 17.8296C9.16607 19.0714 10.1298 20.0602 11.3566 20.4923C10.39 21.0078 9.28641 21.2998 8.11377 21.2998C7.83658 21.2998 7.56369 21.284 7.29643 21.2525L6.96797 22.17C8.67067 23.2614 10.6937 23.8987 12.8669 23.8987C19.9556 23.8984 23.8159 18.0175 23.8159 12.9497C23.8159 12.8727 23.8152 12.7959 23.8136 12.7191C24.4887 12.1952 25.0784 11.5622 25.5531 10.8508L26.5108 9.41548L24.9341 10.1164C24.8483 10.1545 24.7616 10.1909 24.674 10.2255C24.8604 9.9311 25.0109 9.6116 25.1195 9.27293L25.5213 8.01872L24.3884 8.69024C23.7995 9.03925 23.1549 9.30324 22.4706 9.46555C21.726 8.77483 20.7266 8.35132 19.6306 8.35132C17.3265 8.35132 15.4578 10.2199 15.4578 12.5234C15.4578 12.6203 15.461 12.7165 15.4675 12.812ZM2.30786 0.5H29.6921C30.6907 0.5 31.5 1.30935 31.5 2.30786V29.6921C31.5 30.6907 30.6907 31.5 29.6921 31.5H2.30786C1.30935 31.5 0.5 30.6907 0.5 29.6921V2.30786C0.5 1.30935 1.30935 0.5 2.30786 0.5Z" fill="white" stroke="white"/>
</svg>
