<svg width="20" height="20" viewBox="0 0 20 20" fill="none" xmlns="http://www.w3.org/2000/svg">
<path d="M16.9413 4.36479C16.9091 4.32424 16.8756 4.2837 16.8406 4.24316C16.0166 3.26031 14.9903 2.46676 13.8317 1.91665C12.6731 1.36655 11.4095 1.07283 10.127 1.05553C10.0837 1.05413 10.0417 1.05273 9.99839 1.05273C9.95505 1.05273 9.91311 1.05413 9.86977 1.05553C8.5825 1.073 7.31427 1.36895 6.15224 1.92306C4.9902 2.47717 3.9619 3.2763 3.13801 4.26552C3.11453 4.29075 3.09259 4.31736 3.0723 4.34521C3.07125 4.34732 3.06983 4.34921 3.06811 4.35081C1.76356 5.94463 1.05078 7.94081 1.05078 10.0005C1.05078 12.0601 1.76356 14.0563 3.06811 15.6501C3.06983 15.6517 3.07125 15.6536 3.0723 15.6557C3.09259 15.6835 3.11454 15.7102 3.13801 15.7354L3.13941 15.7368C3.9632 16.7257 4.99131 17.5245 6.15311 18.0784C7.3149 18.6322 8.58283 18.928 9.86977 18.9454C9.95561 18.9482 10.0412 18.9482 10.127 18.9454C11.4095 18.9281 12.6731 18.6344 13.8317 18.0843C14.9903 17.5341 16.0166 16.7406 16.8406 15.7577C16.8756 15.7172 16.9091 15.6767 16.9413 15.6361C18.238 14.0442 18.9461 12.0537 18.9461 10.0005C18.9461 7.94719 18.238 5.95674 16.9413 4.36479ZM14.9602 9.75579C14.9463 8.42997 14.7549 7.11198 14.3912 5.83697C15.1876 5.58561 15.9484 5.23272 16.6547 4.78701C17.7722 6.20711 18.4026 7.94939 18.4526 9.75579H14.9602ZM10.2431 1.55465C11.7376 1.70843 13.0378 3.25192 13.7886 5.51121C12.6329 5.82841 11.4414 5.99661 10.2431 6.01173V1.55465ZM9.75373 6.01173C8.55539 5.99661 7.36389 5.82841 6.2082 5.51121C6.95897 3.25192 8.25918 1.70843 9.75373 1.55465V6.01173ZM9.75373 6.50106V9.75579H5.52593C5.53928 8.47845 5.72024 7.2084 6.06419 5.97817C7.26657 6.30975 8.50657 6.48549 9.75373 6.50106ZM9.75373 10.2451V13.4998C8.50657 13.5154 7.26657 13.6912 6.06419 14.0227C5.72024 12.7925 5.53928 11.5224 5.52593 10.2451H9.75373ZM9.75373 13.9892V18.4463C8.25918 18.2925 6.95897 16.749 6.2082 14.4897C7.36389 14.1725 8.55539 14.0043 9.75373 13.9892ZM10.2431 13.9892C11.4414 14.0043 12.6329 14.1725 13.7886 14.4897C13.0378 16.749 11.7376 18.2925 10.2431 18.4463V13.9892ZM10.2431 13.4998V10.2451H14.4709C14.4575 11.5229 14.2765 12.7934 13.9326 14.0241C12.7305 13.6908 11.4904 13.5146 10.2431 13.4998ZM10.2431 9.75579V6.50106C11.4904 6.48632 12.7305 6.31009 13.9326 5.97678C14.2765 7.20748 14.4575 8.478 14.4709 9.75579H10.2431ZM16.3387 4.40673C15.6836 4.81486 14.98 5.1394 14.2444 5.3728C13.7075 3.7762 12.9008 2.50674 11.9403 1.76715C13.644 2.17138 15.1805 3.09351 16.3387 4.40673ZM8.05646 1.76715C7.09598 2.50674 6.28929 3.7762 5.75242 5.3728C5.01727 5.13868 4.31383 4.81467 3.6581 4.40813C4.81553 3.09377 6.35233 2.17101 8.05646 1.76715ZM3.34213 4.78561C4.0483 5.23225 4.80906 5.58608 5.60562 5.83837C5.24174 7.11288 5.05036 8.43042 5.0366 9.75579H1.5442C1.59415 7.94896 2.22457 6.20624 3.34213 4.78561ZM5.0366 10.2451C5.05036 11.5705 5.24173 12.888 5.60562 14.1625V14.1639C4.80889 14.4152 4.04806 14.7686 3.34213 15.2153C2.22457 13.7947 1.59415 12.0519 1.5442 10.2451H5.0366ZM3.6581 15.5928C4.31383 15.1862 5.01727 14.8622 5.75242 14.6281C6.28929 16.2247 7.09598 17.4942 8.05646 18.2337C6.35233 17.8299 4.81553 16.9071 3.6581 15.5928ZM11.9403 18.2337C12.9008 17.4942 13.7075 16.2247 14.2444 14.6281C14.98 14.8615 15.6836 15.186 16.3387 15.5942C15.1805 16.9074 13.644 17.8295 11.9403 18.2337ZM16.6547 15.2139C15.9484 14.7682 15.1876 14.4153 14.3912 14.1639C14.7549 12.8889 14.9463 11.5709 14.9602 10.2451H18.4526C18.4026 12.0515 17.7722 13.7938 16.6547 15.2139Z" fill="#03948B" stroke="#03948B" stroke-width="0.5"/>
</svg>
