<svg width="100" height="71" viewBox="0 0 100 71" fill="none" xmlns="http://www.w3.org/2000/svg">
<path d="M97.9396 11.0301C96.7873 6.74599 93.4096 3.3689 89.1261 2.21534C81.3008 0.0742188 49.9989 0.0742188 49.9989 0.0742188C49.9989 0.0742188 18.6982 0.0742188 10.8728 2.13416C6.67177 3.28651 3.21168 6.7466 2.05933 11.0301C0 18.8548 0 35.0822 0 35.0822C0 35.0822 0 51.3915 2.05933 59.1344C3.2129 63.4179 6.58937 66.7949 10.8734 67.9485C18.7806 70.0902 50.0001 70.0902 50.0001 70.0902C50.0001 70.0902 81.3008 70.0902 89.1261 68.0303C93.4102 66.8773 96.7873 63.5003 97.9409 59.2168C99.9996 51.3915 99.9996 35.1646 99.9996 35.1646C99.9996 35.1646 100.082 18.8548 97.9396 11.0301V11.0301ZM40.033 50.0737V20.0907L66.0621 35.0822L40.033 50.0737Z" fill="#03948B"/>
</svg>
