<svg width="582" height="278" viewBox="0 0 582 278" fill="none" xmlns="http://www.w3.org/2000/svg">
<g filter="url(#filter0_d)">
<path d="M105.68 243.9V206.7H28.5801V155.7L123.68 34.5H162.68V155.7H189.08V206.7H162.68V243.9H105.68ZM84.6801 155.7H112.28V119.7L84.6801 155.7ZM371.461 117.9C371.461 131.1 369.461 143.3 365.461 154.5C361.461 165.5 355.861 175.1 348.661 183.3C341.661 191.3 333.261 197.6 323.461 202.2C313.861 206.6 303.361 208.8 291.961 208.8C280.561 208.8 269.961 206.6 260.161 202.2C250.561 197.6 242.161 191.3 234.961 183.3C227.961 175.1 222.461 165.5 218.461 154.5C214.461 143.3 212.461 131.1 212.461 117.9C212.461 104.7 214.461 92.6 218.461 81.6C222.461 70.4 227.961 60.8 234.961 52.8C242.161 44.6 250.561 38.2 260.161 33.6C269.961 29 280.561 26.7 291.961 26.7C303.361 26.7 313.861 29 323.461 33.6C333.261 38.2 341.661 44.6 348.661 52.8C355.861 60.8 361.461 70.4 365.461 81.6C369.461 92.6 371.461 104.7 371.461 117.9ZM313.861 117.9C313.861 106.3 311.761 96.9 307.561 89.7C303.561 82.5 298.361 78.9 291.961 78.9C285.161 78.9 279.661 82.5 275.461 89.7C271.461 96.9 269.461 106.3 269.461 117.9C269.461 129.5 271.461 138.9 275.461 146.1C279.661 153.1 285.161 156.6 291.961 156.6C298.361 156.6 303.561 153.1 307.561 146.1C311.761 138.9 313.861 129.5 313.861 117.9ZM465.739 243.9V206.7H388.639V155.7L483.739 34.5H522.739V155.7H549.139V206.7H522.739V243.9H465.739ZM444.739 155.7H472.339V119.7L444.739 155.7Z" fill="url(#paint0_linear)" fill-opacity="0.7"/>
</g>
<defs>
<filter id="filter0_d" x="0.582031" y="0.699951" width="580.559" height="277.2" filterUnits="userSpaceOnUse" color-interpolation-filters="sRGB">
<feFlood flood-opacity="0" result="BackgroundImageFix"/>
<feColorMatrix in="SourceAlpha" type="matrix" values="0 0 0 0 0 0 0 0 0 0 0 0 0 0 0 0 0 0 127 0"/>
<feOffset dx="2" dy="4"/>
<feGaussianBlur stdDeviation="15"/>
<feColorMatrix type="matrix" values="0 0 0 0 0.352326 0 0 0 0 0.579167 0 0 0 0 0.56481 0 0 0 0.15 0"/>
<feBlend mode="normal" in2="BackgroundImageFix" result="effect1_dropShadow"/>
<feBlend mode="normal" in="SourceGraphic" in2="effect1_dropShadow" result="shape"/>
</filter>
<linearGradient id="paint0_linear" x1="38.6182" y1="149.8" x2="535.505" y2="-21.3241" gradientUnits="userSpaceOnUse">
<stop stop-color="#047871"/>
<stop offset="1" stop-color="#02B1A6"/>
</linearGradient>
</defs>
</svg>
