<svg width="334" height="190" viewBox="0 0 334 190" fill="none" xmlns="http://www.w3.org/2000/svg">
<mask id="path-1-inside-1" fill="white">
<path d="M27.7402 168.955C26.0862 170.282 24.1527 171.322 21.9416 172.064C19.7304 172.81 17.6625 173.182 15.7465 173.182C12.8682 173.182 10.4422 172.663 8.47036 171.627C6.49674 170.59 4.92484 169.194 3.75465 167.439C2.57921 165.68 1.73911 163.635 1.23436 161.295C0.727856 158.954 0.474609 156.457 0.474609 153.797C0.474609 150.763 0.764538 147.963 1.34789 145.378C1.93473 142.799 2.86739 140.567 4.14762 138.677C5.42785 136.79 7.09232 135.301 9.14278 134.209C11.1967 133.119 13.7153 132.574 16.7019 132.574C18.1411 132.574 19.8352 132.749 21.7809 133.091C23.7248 133.441 25.6024 134.087 27.4153 135.047V121.725H21.1207V115.585H35.8687V166.557H41.7685V172.541H27.8973V169.03L27.7402 168.95V168.955ZM18.3716 139.12C17.1438 139.12 15.9683 139.333 14.8488 139.76C13.7292 140.186 12.7355 140.947 11.8831 142.037C11.0273 143.127 10.3462 144.617 9.83967 146.505C9.33316 148.395 9.08165 150.801 9.08165 153.727C9.08165 156.277 9.3087 158.39 9.75931 160.067C10.2134 161.744 10.8422 163.071 11.6404 164.058C12.4403 165.043 13.3869 165.734 14.4838 166.133C15.5789 166.531 16.7665 166.73 18.0467 166.73C19.7549 166.73 21.5014 166.346 23.2864 165.574C25.0784 164.802 26.4477 163.991 27.4136 163.141V141.679C26.9856 141.358 26.4267 141.05 25.7316 140.76C25.0365 140.469 24.2767 140.201 23.4506 139.962C22.6227 139.723 21.7687 139.526 20.8884 139.363C20.0064 139.206 19.1645 139.124 18.3646 139.124L18.3716 139.12ZM45.1149 139.679V133.619H57.6308V166.402H63.37V171.509C62.2522 172.038 60.965 172.434 59.5049 172.701C58.0412 172.967 56.7802 173.103 55.7183 173.103C53.4303 173.103 51.7816 172.635 50.7755 171.706C49.7625 170.775 49.2298 169.142 49.1774 166.798V139.684H45.1115L45.1149 139.679ZM58.4272 122.69C58.4272 124.126 57.9085 125.363 56.8728 126.4C55.8371 127.438 54.5743 127.955 53.0862 127.955C51.6506 127.955 50.428 127.436 49.4185 126.4C48.4107 125.363 47.9059 124.126 47.9059 122.69C47.9059 121.202 48.4124 119.952 49.4202 118.941C50.4297 117.935 51.6523 117.428 53.088 117.428C54.5726 117.428 55.8353 117.935 56.8728 118.944C57.9085 119.957 58.4272 121.208 58.4272 122.696V122.69ZM84.2536 157.388L77.3198 166.562H81.784V172.546H64.9646L65.0449 166.562H68.6289L80.1876 151.245L72.5377 139.599H66.0021V133.61H77.7215L86.2499 146.535L91.3551 139.592H87.4498V133.61H104.748V139.595H100.126L90.1622 152.438L99.5675 166.559H105.226V172.543H87.2105V166.562H90.3194L84.2589 157.388H84.2536ZM109.921 139.683V133.619H122.437V166.405H128.173V171.51C127.055 172.04 125.768 172.436 124.307 172.703C122.846 172.969 121.583 173.105 120.523 173.105C118.235 173.105 116.589 172.637 115.58 171.708C114.57 170.777 114.038 169.144 113.985 166.8V139.684H109.921V139.683ZM123.235 122.692C123.235 124.128 122.716 125.364 121.681 126.402C120.643 127.439 119.38 127.956 117.891 127.956C116.458 127.956 115.236 127.438 114.226 126.402C113.217 125.364 112.712 124.128 112.712 122.692C112.712 121.204 113.219 119.954 114.232 118.942C115.239 117.936 116.462 117.43 117.899 117.43C119.384 117.43 120.645 117.936 121.682 118.946C122.718 119.959 123.237 121.209 123.237 122.697L123.235 122.692Z"/>
</mask>
<path d="M27.7402 168.955C26.0862 170.282 24.1527 171.322 21.9416 172.064C19.7304 172.81 17.6625 173.182 15.7465 173.182C12.8682 173.182 10.4422 172.663 8.47036 171.627C6.49674 170.59 4.92484 169.194 3.75465 167.439C2.57921 165.68 1.73911 163.635 1.23436 161.295C0.727856 158.954 0.474609 156.457 0.474609 153.797C0.474609 150.763 0.764538 147.963 1.34789 145.378C1.93473 142.799 2.86739 140.567 4.14762 138.677C5.42785 136.79 7.09232 135.301 9.14278 134.209C11.1967 133.119 13.7153 132.574 16.7019 132.574C18.1411 132.574 19.8352 132.749 21.7809 133.091C23.7248 133.441 25.6024 134.087 27.4153 135.047V121.725H21.1207V115.585H35.8687V166.557H41.7685V172.541H27.8973V169.03L27.7402 168.95V168.955ZM18.3716 139.12C17.1438 139.12 15.9683 139.333 14.8488 139.76C13.7292 140.186 12.7355 140.947 11.8831 142.037C11.0273 143.127 10.3462 144.617 9.83967 146.505C9.33316 148.395 9.08165 150.801 9.08165 153.727C9.08165 156.277 9.3087 158.39 9.75931 160.067C10.2134 161.744 10.8422 163.071 11.6404 164.058C12.4403 165.043 13.3869 165.734 14.4838 166.133C15.5789 166.531 16.7665 166.73 18.0467 166.73C19.7549 166.73 21.5014 166.346 23.2864 165.574C25.0784 164.802 26.4477 163.991 27.4136 163.141V141.679C26.9856 141.358 26.4267 141.05 25.7316 140.76C25.0365 140.469 24.2767 140.201 23.4506 139.962C22.6227 139.723 21.7687 139.526 20.8884 139.363C20.0064 139.206 19.1645 139.124 18.3646 139.124L18.3716 139.12ZM45.1149 139.679V133.619H57.6308V166.402H63.37V171.509C62.2522 172.038 60.965 172.434 59.5049 172.701C58.0412 172.967 56.7802 173.103 55.7183 173.103C53.4303 173.103 51.7816 172.635 50.7755 171.706C49.7625 170.775 49.2298 169.142 49.1774 166.798V139.684H45.1115L45.1149 139.679ZM58.4272 122.69C58.4272 124.126 57.9085 125.363 56.8728 126.4C55.8371 127.438 54.5743 127.955 53.0862 127.955C51.6506 127.955 50.428 127.436 49.4185 126.4C48.4107 125.363 47.9059 124.126 47.9059 122.69C47.9059 121.202 48.4124 119.952 49.4202 118.941C50.4297 117.935 51.6523 117.428 53.088 117.428C54.5726 117.428 55.8353 117.935 56.8728 118.944C57.9085 119.957 58.4272 121.208 58.4272 122.696V122.69ZM84.2536 157.388L77.3198 166.562H81.784V172.546H64.9646L65.0449 166.562H68.6289L80.1876 151.245L72.5377 139.599H66.0021V133.61H77.7215L86.2499 146.535L91.3551 139.592H87.4498V133.61H104.748V139.595H100.126L90.1622 152.438L99.5675 166.559H105.226V172.543H87.2105V166.562H90.3194L84.2589 157.388H84.2536ZM109.921 139.683V133.619H122.437V166.405H128.173V171.51C127.055 172.04 125.768 172.436 124.307 172.703C122.846 172.969 121.583 173.105 120.523 173.105C118.235 173.105 116.589 172.637 115.58 171.708C114.57 170.777 114.038 169.144 113.985 166.8V139.684H109.921V139.683ZM123.235 122.692C123.235 124.128 122.716 125.364 121.681 126.402C120.643 127.439 119.38 127.956 117.891 127.956C116.458 127.956 115.236 127.438 114.226 126.402C113.217 125.364 112.712 124.128 112.712 122.692C112.712 121.204 113.219 119.954 114.232 118.942C115.239 117.936 116.462 117.43 117.899 117.43C119.384 117.43 120.645 117.936 121.682 118.946C122.718 119.959 123.237 121.209 123.237 122.697L123.235 122.692Z" fill="white" stroke="url(#paint0_linear)" stroke-width="2" mask="url(#path-1-inside-1)"/>
<mask id="path-2-inside-2" fill="white">
<path d="M167.185 138.404C168.033 139.361 168.684 140.587 169.136 142.072C169.587 143.564 169.814 145.053 169.814 146.543C169.814 148.723 169.377 150.637 168.499 152.286C167.62 153.935 166.427 155.33 164.913 156.474C163.399 157.618 161.602 158.5 159.528 159.111C157.455 159.723 155.197 160.027 152.752 160.027H148.368C146.508 160.027 145.098 160.21 144.141 160.575C143.186 160.942 142.709 161.649 142.709 162.695C142.709 164.32 143.932 165.132 146.377 165.132H156.898C161.736 165.132 165.509 166.106 168.216 168.054C170.93 170.001 172.285 172.922 172.285 176.816C172.285 178.685 171.873 180.404 171.045 181.979C170.224 183.551 168.949 184.927 167.22 186.101C165.496 187.275 163.343 188.197 160.767 188.864C158.187 189.528 155.146 189.863 151.639 189.863C148.289 189.863 145.512 189.558 143.308 188.946C141.102 188.331 139.335 187.532 138.007 186.55C136.68 185.565 135.747 184.407 135.216 183.074C134.685 181.743 134.42 180.36 134.42 178.924C134.42 176.689 134.961 174.773 136.056 173.178C137.145 171.58 138.301 170.436 139.523 169.743C137.981 169.423 136.816 168.733 136.016 167.671C135.218 166.606 134.822 165.308 134.822 163.768C134.822 162.654 135.035 161.71 135.461 160.938C135.887 160.17 136.418 159.518 137.055 158.987C137.689 158.457 138.393 158.032 139.169 157.712C139.937 157.393 140.692 157.154 141.439 156.996C140.002 156.357 138.727 155.227 137.614 153.605C136.497 151.98 135.938 149.736 135.938 146.863C135.938 144.313 136.416 142.13 137.373 140.322C138.33 138.516 139.592 137.038 141.16 135.896C142.728 134.752 144.51 133.916 146.504 133.381C148.495 132.852 150.504 132.585 152.521 132.585C153.901 132.585 155.27 132.676 156.626 132.864C157.981 133.049 159.19 133.276 160.253 133.54H173.405V138.247H167.426L167.182 138.404H167.185ZM146.936 170.873C146.457 171.03 145.965 171.323 145.462 171.746C144.955 172.174 144.505 172.665 144.106 173.224C143.708 173.783 143.39 174.394 143.149 175.063C142.91 175.727 142.789 176.38 142.789 177.019C142.789 177.815 142.936 178.612 143.23 179.412C143.521 180.208 144.038 180.896 144.784 181.483C145.528 182.067 146.552 182.549 147.854 182.915C149.156 183.287 150.841 183.474 152.916 183.474C156.423 183.474 159.064 182.877 160.845 181.681C162.627 180.484 163.518 178.928 163.518 177.014C163.518 176.27 163.385 175.54 163.119 174.822C162.852 174.106 162.403 173.452 161.764 172.866C161.127 172.282 160.29 171.805 159.253 171.433C158.217 171.061 156.93 170.875 155.387 170.875H146.938L146.936 170.873ZM161.205 146.461C161.205 145.663 161.072 144.814 160.807 143.911C160.541 143.003 160.091 142.168 159.452 141.396C158.812 140.628 157.95 139.988 156.86 139.482C155.77 138.975 154.401 138.724 152.755 138.724C150.045 138.724 147.998 139.429 146.616 140.837C145.233 142.247 144.543 144.147 144.543 146.541C144.543 148.882 145.207 150.716 146.534 152.047C147.861 153.374 149.725 154.041 152.116 154.041C154.718 154.041 156.884 153.418 158.613 152.167C160.342 150.918 161.205 149.016 161.205 146.463V146.461ZM189.664 139.122C190.46 138.43 191.415 137.7 192.531 136.93C193.649 136.162 194.842 135.458 196.119 134.817C197.394 134.181 198.697 133.647 200.024 133.224C201.352 132.798 202.627 132.585 203.849 132.585C204.595 132.585 205.152 132.786 205.526 133.186C205.896 133.584 206.085 134.289 206.085 135.299C206.085 136.364 205.87 137.639 205.444 139.127C205.018 140.617 204.354 141.84 203.453 142.795L189.58 142.877V166.568H195.396V172.551H175.628V166.568H181.13V139.688H175.785V133.54H189.419V139.045L189.657 139.126L189.664 139.122ZM243.947 153.081C243.947 155.686 243.627 158.198 242.99 160.619C242.352 163.039 241.302 165.177 239.841 167.039C238.373 168.901 236.463 170.389 234.098 171.507C231.731 172.625 228.797 173.184 225.29 173.184C221.992 173.184 219.215 172.651 216.959 171.587C214.697 170.525 212.863 169.072 211.457 167.238C210.049 165.404 209.03 163.291 208.387 160.898C207.749 158.505 207.43 155.955 207.43 153.241C207.43 150.581 207.774 148.016 208.465 145.542C209.155 143.069 210.247 140.89 211.731 139.002C213.221 137.115 215.134 135.596 217.472 134.455C219.813 133.311 222.625 132.74 225.922 132.74C229.27 132.74 232.1 133.311 234.411 134.455C236.723 135.599 238.585 137.101 239.993 138.961C241.397 140.823 242.408 142.991 243.019 145.464C243.631 147.937 243.936 150.476 243.936 153.079L243.947 153.081ZM235.258 153.241C235.258 151.594 235.135 149.93 234.9 148.255C234.66 146.578 234.208 145.066 233.544 143.709C232.881 142.351 231.95 141.249 230.753 140.399C229.559 139.548 228.004 139.124 226.09 139.124C224.123 139.124 222.502 139.536 221.227 140.359C219.952 141.185 218.939 142.262 218.199 143.59C217.453 144.921 216.936 146.419 216.645 148.096C216.351 149.773 216.208 151.488 216.208 153.243C216.208 155.054 216.327 156.783 216.564 158.43C216.803 160.079 217.268 161.529 217.961 162.779C218.65 164.028 219.621 165.025 220.869 165.769C222.116 166.515 223.779 166.887 225.851 166.887C227.761 166.887 229.326 166.489 230.549 165.691C231.771 164.894 232.732 163.857 233.42 162.582C234.11 161.303 234.59 159.857 234.856 158.233C235.121 156.609 235.254 154.949 235.254 153.248L235.258 153.241ZM264.193 173.423C261.695 173.423 259.687 173.073 258.174 172.385C256.66 171.697 255.49 170.766 254.667 169.596C253.843 168.426 253.284 167.098 252.994 165.607C252.701 164.117 252.557 162.573 252.557 160.979V139.679H246.895V133.54H261.007V159.546C261.007 160.664 261.06 161.646 261.164 162.498C261.269 163.347 261.524 164.065 261.924 164.65C262.326 165.238 262.899 165.677 263.646 165.968C264.39 166.262 265.405 166.405 266.689 166.405C267.969 166.405 269.585 166.087 271.534 165.45C273.483 164.812 275.341 163.668 277.102 162.02V139.681H272.002V133.54H285.552V166.48H291.05V171.505C289.565 172.09 288.133 172.488 286.753 172.7C285.373 172.915 284.235 173.021 283.34 173.021C281.393 173.021 279.959 172.661 279.04 171.943C278.118 171.227 277.552 169.909 277.341 167.996C274.953 170.176 272.59 171.624 270.25 172.342C267.91 173.058 265.892 173.419 264.189 173.419L264.193 173.423ZM292.332 183.156H298.148V139.684H292.332V133.619H306.123V137.21L306.28 137.29C307.874 135.963 309.785 134.911 312.019 134.139C314.251 133.371 316.322 132.983 318.237 132.983C321.159 132.983 323.59 133.502 325.53 134.537C327.469 135.577 329.037 136.972 330.234 138.729C331.428 140.483 332.277 142.544 332.784 144.908C333.29 147.275 333.544 149.764 333.544 152.366C333.544 155.4 333.252 158.191 332.67 160.743C332.083 163.296 331.154 165.502 329.876 167.362C328.601 169.226 326.928 170.686 324.856 171.75C322.783 172.815 320.259 173.346 317.283 173.346C315.9 173.346 314.241 173.159 312.3 172.787C310.361 172.417 308.461 171.75 306.601 170.796V183.156H312.819V189.299H292.332V183.156ZM315.688 166.644C316.859 166.644 318.001 166.445 319.117 166.047C320.23 165.651 321.213 164.929 322.063 163.895C322.914 162.858 323.592 161.41 324.096 159.546C324.603 157.688 324.856 155.32 324.856 152.448C324.856 149.895 324.629 147.809 324.179 146.187C323.724 144.563 323.113 143.274 322.345 142.317C321.576 141.359 320.645 140.71 319.555 140.36C318.467 140.016 317.285 139.843 316.01 139.843C315.159 139.843 314.281 139.948 313.378 140.163C312.475 140.378 311.596 140.657 310.747 141.001C309.897 141.351 309.113 141.735 308.397 142.159C307.68 142.586 307.087 143.01 306.606 143.434V164.018C307.085 164.337 307.668 164.655 308.36 164.975C309.048 165.294 309.81 165.574 310.63 165.813C311.455 166.051 312.307 166.25 313.18 166.41C314.054 166.568 314.892 166.65 315.692 166.65L315.688 166.644Z"/>
</mask>
<path d="M167.185 138.404C168.033 139.361 168.684 140.587 169.136 142.072C169.587 143.564 169.814 145.053 169.814 146.543C169.814 148.723 169.377 150.637 168.499 152.286C167.62 153.935 166.427 155.33 164.913 156.474C163.399 157.618 161.602 158.5 159.528 159.111C157.455 159.723 155.197 160.027 152.752 160.027H148.368C146.508 160.027 145.098 160.21 144.141 160.575C143.186 160.942 142.709 161.649 142.709 162.695C142.709 164.32 143.932 165.132 146.377 165.132H156.898C161.736 165.132 165.509 166.106 168.216 168.054C170.93 170.001 172.285 172.922 172.285 176.816C172.285 178.685 171.873 180.404 171.045 181.979C170.224 183.551 168.949 184.927 167.22 186.101C165.496 187.275 163.343 188.197 160.767 188.864C158.187 189.528 155.146 189.863 151.639 189.863C148.289 189.863 145.512 189.558 143.308 188.946C141.102 188.331 139.335 187.532 138.007 186.55C136.68 185.565 135.747 184.407 135.216 183.074C134.685 181.743 134.42 180.36 134.42 178.924C134.42 176.689 134.961 174.773 136.056 173.178C137.145 171.58 138.301 170.436 139.523 169.743C137.981 169.423 136.816 168.733 136.016 167.671C135.218 166.606 134.822 165.308 134.822 163.768C134.822 162.654 135.035 161.71 135.461 160.938C135.887 160.17 136.418 159.518 137.055 158.987C137.689 158.457 138.393 158.032 139.169 157.712C139.937 157.393 140.692 157.154 141.439 156.996C140.002 156.357 138.727 155.227 137.614 153.605C136.497 151.98 135.938 149.736 135.938 146.863C135.938 144.313 136.416 142.13 137.373 140.322C138.33 138.516 139.592 137.038 141.16 135.896C142.728 134.752 144.51 133.916 146.504 133.381C148.495 132.852 150.504 132.585 152.521 132.585C153.901 132.585 155.27 132.676 156.626 132.864C157.981 133.049 159.19 133.276 160.253 133.54H173.405V138.247H167.426L167.182 138.404H167.185ZM146.936 170.873C146.457 171.03 145.965 171.323 145.462 171.746C144.955 172.174 144.505 172.665 144.106 173.224C143.708 173.783 143.39 174.394 143.149 175.063C142.91 175.727 142.789 176.38 142.789 177.019C142.789 177.815 142.936 178.612 143.23 179.412C143.521 180.208 144.038 180.896 144.784 181.483C145.528 182.067 146.552 182.549 147.854 182.915C149.156 183.287 150.841 183.474 152.916 183.474C156.423 183.474 159.064 182.877 160.845 181.681C162.627 180.484 163.518 178.928 163.518 177.014C163.518 176.27 163.385 175.54 163.119 174.822C162.852 174.106 162.403 173.452 161.764 172.866C161.127 172.282 160.29 171.805 159.253 171.433C158.217 171.061 156.93 170.875 155.387 170.875H146.938L146.936 170.873ZM161.205 146.461C161.205 145.663 161.072 144.814 160.807 143.911C160.541 143.003 160.091 142.168 159.452 141.396C158.812 140.628 157.95 139.988 156.86 139.482C155.77 138.975 154.401 138.724 152.755 138.724C150.045 138.724 147.998 139.429 146.616 140.837C145.233 142.247 144.543 144.147 144.543 146.541C144.543 148.882 145.207 150.716 146.534 152.047C147.861 153.374 149.725 154.041 152.116 154.041C154.718 154.041 156.884 153.418 158.613 152.167C160.342 150.918 161.205 149.016 161.205 146.463V146.461ZM189.664 139.122C190.46 138.43 191.415 137.7 192.531 136.93C193.649 136.162 194.842 135.458 196.119 134.817C197.394 134.181 198.697 133.647 200.024 133.224C201.352 132.798 202.627 132.585 203.849 132.585C204.595 132.585 205.152 132.786 205.526 133.186C205.896 133.584 206.085 134.289 206.085 135.299C206.085 136.364 205.87 137.639 205.444 139.127C205.018 140.617 204.354 141.84 203.453 142.795L189.58 142.877V166.568H195.396V172.551H175.628V166.568H181.13V139.688H175.785V133.54H189.419V139.045L189.657 139.126L189.664 139.122ZM243.947 153.081C243.947 155.686 243.627 158.198 242.99 160.619C242.352 163.039 241.302 165.177 239.841 167.039C238.373 168.901 236.463 170.389 234.098 171.507C231.731 172.625 228.797 173.184 225.29 173.184C221.992 173.184 219.215 172.651 216.959 171.587C214.697 170.525 212.863 169.072 211.457 167.238C210.049 165.404 209.03 163.291 208.387 160.898C207.749 158.505 207.43 155.955 207.43 153.241C207.43 150.581 207.774 148.016 208.465 145.542C209.155 143.069 210.247 140.89 211.731 139.002C213.221 137.115 215.134 135.596 217.472 134.455C219.813 133.311 222.625 132.74 225.922 132.74C229.27 132.74 232.1 133.311 234.411 134.455C236.723 135.599 238.585 137.101 239.993 138.961C241.397 140.823 242.408 142.991 243.019 145.464C243.631 147.937 243.936 150.476 243.936 153.079L243.947 153.081ZM235.258 153.241C235.258 151.594 235.135 149.93 234.9 148.255C234.66 146.578 234.208 145.066 233.544 143.709C232.881 142.351 231.95 141.249 230.753 140.399C229.559 139.548 228.004 139.124 226.09 139.124C224.123 139.124 222.502 139.536 221.227 140.359C219.952 141.185 218.939 142.262 218.199 143.59C217.453 144.921 216.936 146.419 216.645 148.096C216.351 149.773 216.208 151.488 216.208 153.243C216.208 155.054 216.327 156.783 216.564 158.43C216.803 160.079 217.268 161.529 217.961 162.779C218.65 164.028 219.621 165.025 220.869 165.769C222.116 166.515 223.779 166.887 225.851 166.887C227.761 166.887 229.326 166.489 230.549 165.691C231.771 164.894 232.732 163.857 233.42 162.582C234.11 161.303 234.59 159.857 234.856 158.233C235.121 156.609 235.254 154.949 235.254 153.248L235.258 153.241ZM264.193 173.423C261.695 173.423 259.687 173.073 258.174 172.385C256.66 171.697 255.49 170.766 254.667 169.596C253.843 168.426 253.284 167.098 252.994 165.607C252.701 164.117 252.557 162.573 252.557 160.979V139.679H246.895V133.54H261.007V159.546C261.007 160.664 261.06 161.646 261.164 162.498C261.269 163.347 261.524 164.065 261.924 164.65C262.326 165.238 262.899 165.677 263.646 165.968C264.39 166.262 265.405 166.405 266.689 166.405C267.969 166.405 269.585 166.087 271.534 165.45C273.483 164.812 275.341 163.668 277.102 162.02V139.681H272.002V133.54H285.552V166.48H291.05V171.505C289.565 172.09 288.133 172.488 286.753 172.7C285.373 172.915 284.235 173.021 283.34 173.021C281.393 173.021 279.959 172.661 279.04 171.943C278.118 171.227 277.552 169.909 277.341 167.996C274.953 170.176 272.59 171.624 270.25 172.342C267.91 173.058 265.892 173.419 264.189 173.419L264.193 173.423ZM292.332 183.156H298.148V139.684H292.332V133.619H306.123V137.21L306.28 137.29C307.874 135.963 309.785 134.911 312.019 134.139C314.251 133.371 316.322 132.983 318.237 132.983C321.159 132.983 323.59 133.502 325.53 134.537C327.469 135.577 329.037 136.972 330.234 138.729C331.428 140.483 332.277 142.544 332.784 144.908C333.29 147.275 333.544 149.764 333.544 152.366C333.544 155.4 333.252 158.191 332.67 160.743C332.083 163.296 331.154 165.502 329.876 167.362C328.601 169.226 326.928 170.686 324.856 171.75C322.783 172.815 320.259 173.346 317.283 173.346C315.9 173.346 314.241 173.159 312.3 172.787C310.361 172.417 308.461 171.75 306.601 170.796V183.156H312.819V189.299H292.332V183.156ZM315.688 166.644C316.859 166.644 318.001 166.445 319.117 166.047C320.23 165.651 321.213 164.929 322.063 163.895C322.914 162.858 323.592 161.41 324.096 159.546C324.603 157.688 324.856 155.32 324.856 152.448C324.856 149.895 324.629 147.809 324.179 146.187C323.724 144.563 323.113 143.274 322.345 142.317C321.576 141.359 320.645 140.71 319.555 140.36C318.467 140.016 317.285 139.843 316.01 139.843C315.159 139.843 314.281 139.948 313.378 140.163C312.475 140.378 311.596 140.657 310.747 141.001C309.897 141.351 309.113 141.735 308.397 142.159C307.68 142.586 307.087 143.01 306.606 143.434V164.018C307.085 164.337 307.668 164.655 308.36 164.975C309.048 165.294 309.81 165.574 310.63 165.813C311.455 166.051 312.307 166.25 313.18 166.41C314.054 166.568 314.892 166.65 315.692 166.65L315.688 166.644Z" fill="#009E94" stroke="url(#paint1_linear)" stroke-width="4" mask="url(#path-2-inside-2)"/>
<path d="M198.486 57.3544C197.767 57.3784 197.092 56.9702 196.671 56.6063C196.438 56.4048 196.217 56.1614 196.048 55.8906C195.888 55.6344 195.722 55.2663 195.734 54.8395L195.734 54.8383C195.821 51.9307 195.828 49.0236 195.751 46.1186L195.751 46.1174C195.741 45.6955 195.901 45.3278 196.06 45.0665C196.226 44.7914 196.446 44.5426 196.678 44.3354C197.098 43.9615 197.776 43.5384 198.506 43.5597L200.853 43.628L200.844 43.6372C203.431 43.718 206.018 43.808 208.607 43.9041C210.757 43.9621 212.61 43.362 213.832 42.4247C215.04 41.4987 215.601 40.2871 215.393 38.9792L215.392 38.9729C215.01 36.46 214.502 33.9516 213.864 31.4391C213.472 29.9737 212.265 28.3204 210.559 26.8909C208.865 25.4726 206.795 24.3729 204.836 23.9376C201.736 23.29 198.637 22.7106 195.537 22.1994L195.7 21.2127L195.541 22.2C195.187 22.1431 194.86 21.9766 194.611 21.8216C194.345 21.6559 194.084 21.4496 193.851 21.2328C193.619 21.0161 193.395 20.7711 193.213 20.5189C193.046 20.2865 192.853 19.9656 192.781 19.6049L192.78 19.604C192.202 16.6982 191.55 13.7914 190.815 10.8852C190.329 9.07491 189.139 7.15103 187.606 5.57034C186.066 3.9831 184.279 2.84354 182.682 2.47499C180.012 1.88684 177.336 1.41055 174.663 1.04441L174.657 1.04365C173.18 0.832982 171.874 1.39868 170.923 2.50871C169.961 3.63289 169.36 5.33248 169.444 7.31502C169.613 10.4842 169.765 13.6519 169.898 16.8232L169.898 16.8303C170.033 20.6977 173.361 23.9963 177.362 24.2192L177.363 24.2193C180.585 24.4033 183.806 24.644 187.028 24.9414C187.404 24.9757 187.747 25.1332 188.005 25.2844C188.28 25.4454 188.546 25.6504 188.779 25.868C189.011 26.0853 189.233 26.3355 189.41 26.5982C189.573 26.841 189.759 27.1835 189.802 27.5734L189.802 27.5756C190.134 30.6045 190.401 33.6337 190.601 36.6632M198.486 57.3544L189.603 36.7291M198.486 57.3544C201.853 57.2448 205.219 57.1214 208.588 56.9809C210.735 56.9167 212.58 57.5097 213.793 58.4388C214.989 59.3555 215.541 60.5583 215.325 61.8653L215.323 61.8726C214.927 64.383 214.4 66.8946 213.744 69.4057C213.342 70.8753 212.125 72.5347 210.414 73.9713C208.716 75.3966 206.646 76.5045 204.693 76.9485C201.606 77.6093 198.516 78.1987 195.428 78.7201C194.916 78.8047 194.335 79.1116 193.921 79.3907C193.698 79.5406 193.473 79.7163 193.286 79.9046C193.141 80.05 192.861 80.3544 192.78 80.7692C192.78 80.7713 192.779 80.7734 192.779 80.7756L193.761 80.9623M198.486 57.3544L190.813 89.4908M190.601 36.6632L189.603 36.7291M190.601 36.6632C190.601 36.6625 190.601 36.6619 190.601 36.6613L189.603 36.7291M190.601 36.6632C190.629 37.0861 190.485 37.4609 190.334 37.7328C190.176 38.0169 189.962 38.2733 189.734 38.4865C189.323 38.8696 188.647 39.3077 187.905 39.2786L187.9 39.2784C184.57 39.133 181.236 39.015 177.906 38.9244L177.904 38.9243C173.813 38.8031 170.574 41.9427 170.585 45.754M189.603 36.7291C189.647 37.3715 188.642 38.3068 187.944 38.2794C184.608 38.1337 181.269 38.0155 177.933 37.9248C173.309 37.7877 169.571 41.3508 169.585 45.7583M170.585 45.754C170.585 45.7536 170.585 45.7532 170.585 45.7528L169.585 45.7583M170.585 45.754C170.585 45.7544 170.585 45.7548 170.585 45.7552L169.585 45.7583M170.585 45.754C170.603 48.9233 170.599 52.0954 170.582 55.2666M169.585 45.7583C169.603 48.924 169.599 52.093 169.582 55.2621M169.582 55.2621L170.582 55.266C170.582 55.2662 170.582 55.2664 170.582 55.2666M169.582 55.2621C169.564 59.6696 173.295 63.231 177.912 63.0871L186.933 74.4426L187.024 75.4384C187.568 75.3887 188.169 75.0983 188.59 74.8283C188.816 74.6831 189.047 74.5081 189.238 74.3138C189.388 74.1609 189.679 73.8344 189.735 73.3814L189.736 73.3723C190.076 70.3432 190.35 67.3177 190.56 64.2908M169.582 55.2621L170.582 55.2676C170.582 55.2673 170.582 55.2669 170.582 55.2666M170.582 55.2666C170.567 59.079 173.8 62.2147 177.881 62.0876L177.884 62.0875C181.212 61.9934 184.538 61.8686 187.863 61.7147L187.869 61.7144C188.6 61.6855 189.273 62.1082 189.685 62.4828C189.913 62.6904 190.128 62.9415 190.288 63.2214C190.441 63.4888 190.59 63.8639 190.56 64.2908M190.56 64.2908C190.56 64.2907 190.56 64.2906 190.56 64.2905L189.563 64.2211L190.56 64.2908ZM193.761 80.9623C193.185 83.8915 192.521 86.8173 191.781 89.7432M193.761 80.9623C193.838 80.558 194.989 79.806 195.591 79.7067L193.761 80.9623ZM191.781 89.7432L190.815 89.4836C190.814 89.486 190.814 89.4884 190.813 89.4908M191.781 89.7432L190.811 89.4978C190.812 89.4955 190.812 89.4931 190.813 89.4908M191.781 89.7432C190.698 93.7721 186.594 98.0255 182.9 98.8769M190.813 89.4908C190.325 91.3016 189.134 93.2251 187.602 94.8054C186.062 96.3924 184.277 97.532 182.68 97.9014M182.9 98.8769L182.685 97.9002C182.683 97.9006 182.682 97.901 182.68 97.9014M182.9 98.8769L182.675 97.9024C182.677 97.9021 182.678 97.9017 182.68 97.9014M182.9 98.8769L182.68 97.9014M124.038 43.6282L126.386 43.5597C127.114 43.5384 127.792 43.9618 128.212 44.3354C128.445 44.5426 128.664 44.7915 128.831 45.0669C128.989 45.3283 129.15 45.6966 129.138 46.1194M124.038 43.6282L128.139 46.0924M124.038 43.6282L124.047 43.6372M124.038 43.6282L124.047 43.6372M129.138 46.1194C129.138 46.1196 129.138 46.1199 129.138 46.1201L128.139 46.0924M129.138 46.1194C129.138 46.1191 129.138 46.1189 129.138 46.1186L128.139 46.0924M129.138 46.1194C129.062 49.0241 129.069 51.931 129.156 54.8383L129.156 54.8395C129.168 55.2659 129.002 55.6338 128.842 55.89C128.674 56.1609 128.453 56.4043 128.22 56.6058C127.799 56.9701 127.124 57.3788 126.404 57.3544M128.139 46.0924C128.062 49.0165 128.069 51.9423 128.156 54.8681C128.174 55.4796 127.136 56.379 126.438 56.355M126.404 57.3544C126.404 57.3544 126.405 57.3544 126.405 57.3544L126.438 56.355M126.404 57.3544C123.042 57.2448 119.676 57.1214 116.307 56.9809C114.157 56.9167 112.311 57.5099 111.099 58.4389C109.902 59.3554 109.351 60.5582 109.567 61.8653L109.568 61.8726C109.964 64.3828 110.491 66.8942 111.148 69.405C111.55 70.8749 112.767 72.5346 114.479 73.9713C116.177 75.3966 118.247 76.5045 120.2 76.9486C123.291 77.6094 126.377 78.1987 129.465 78.72C129.978 78.8047 130.558 79.1118 130.972 79.391C131.195 79.541 131.42 79.7167 131.607 79.905C131.751 80.0508 132.031 80.3558 132.112 80.7713C132.684 83.6785 133.343 86.5836 134.078 89.4904C134.567 91.3015 135.756 93.2252 137.288 94.8055C138.827 96.3925 140.612 97.532 142.21 97.9014C144.884 98.4895 147.557 98.9658 150.229 99.3319L150.235 99.3328C151.714 99.5448 153.02 98.9795 153.97 97.8698C154.932 96.7457 155.533 95.0457 155.451 93.0629C155.28 89.8919 155.128 86.724 154.997 83.5543L154.997 83.5486C154.859 79.68 151.532 76.3819 147.532 76.1605L147.529 76.1604C144.305 75.9747 141.087 75.7341 137.864 75.4384M126.404 57.3544C126.404 57.3544 126.404 57.3544 126.403 57.3544L126.438 56.355M126.438 56.355C123.076 56.2453 119.71 56.122 116.343 55.9815C111.663 55.8394 108.004 58.5442 108.58 62.0285C108.982 64.574 109.516 67.1195 110.182 69.6633L137.864 75.4384M124.047 43.6372C121.459 43.718 118.873 43.808 116.285 43.9041C114.135 43.9621 112.282 43.362 111.059 42.4247C109.851 41.4987 109.29 40.2871 109.498 38.9792L109.499 38.9729C109.881 36.4605 110.391 33.9521 111.029 31.4392C111.42 29.9742 112.627 28.3208 114.335 26.891C116.029 25.4726 118.1 24.3729 120.059 23.9375C123.154 23.2902 126.253 22.7109 129.352 22.1997C129.705 22.1426 130.032 21.9763 130.28 21.8216C130.546 21.6559 130.807 21.4496 131.04 21.2328C131.273 21.0161 131.496 20.7711 131.678 20.5189C131.846 20.2865 132.039 19.9656 132.111 19.6049L132.111 19.604C132.689 16.6983 133.341 13.7917 134.077 10.8857C134.564 9.07465 135.753 7.15058 137.285 5.5701C138.824 3.98295 140.61 2.84357 142.207 2.47503C144.882 1.88682 147.555 1.41053 150.227 1.04441L150.232 1.04365C151.711 0.832911 153.018 1.39884 153.968 2.50871C154.931 3.63282 155.532 5.33244 155.45 7.31531C155.278 10.4846 155.126 13.652 154.992 16.8227H154.992L154.991 16.8303C154.857 20.698 151.53 23.9963 147.53 24.2192L147.529 24.2193C144.307 24.4015 141.089 24.6422 137.865 24.9413C137.864 24.9413 137.863 24.9414 137.863 24.9414L137.955 25.9372M124.047 43.6372L154.306 45.7543M137.955 25.9372C137.286 25.9971 136.155 27.0592 136.081 27.6844C135.751 30.6993 135.486 33.7142 135.287 36.7291C135.245 37.3715 136.247 38.3068 136.946 38.2794C140.282 38.1337 143.623 38.0155 146.958 37.9248C151.586 37.7877 155.318 41.3508 155.306 45.7583M137.955 25.9372C141.169 25.6391 144.375 25.3993 147.585 25.2177M137.955 25.9372L147.585 25.2177M155.306 45.7583L154.306 45.7528C154.306 45.7533 154.306 45.7538 154.306 45.7543M155.306 45.7583L154.306 45.7556C154.306 45.7551 154.306 45.7547 154.306 45.7543M155.306 45.7583C155.289 48.924 155.289 52.093 155.306 55.2621M154.306 45.7543C154.289 48.9228 154.289 52.0948 154.306 55.2668M155.306 55.2621L154.306 55.266C154.306 55.2663 154.306 55.2666 154.306 55.2668M155.306 55.2621L154.306 55.2676C154.306 55.2673 154.306 55.2671 154.306 55.2668M155.306 55.2621C155.324 59.6696 151.595 63.231 146.976 63.0871L154.306 55.2668M137.864 75.4384C137.864 75.4384 137.864 75.4384 137.864 75.4384L137.955 74.4426L137.864 75.4384ZM147.585 25.2177C152.074 24.9676 155.837 21.2778 155.991 16.8651C156.125 13.696 156.277 10.5304 156.448 7.36305L147.585 25.2177ZM169.438 93.0629C169.438 93.0609 169.439 93.0589 169.439 93.057L168.44 93.015L169.438 93.0689C169.438 93.0669 169.438 93.0649 169.438 93.0629Z" fill="#009E94" stroke="url(#paint2_linear)" stroke-width="2"/>
<defs>
<linearGradient id="paint0_linear" x1="11.5615" y1="135.122" x2="122.431" y2="164.918" gradientUnits="userSpaceOnUse">
<stop stop-color="#DEDEDE"/>
<stop offset="1" stop-color="white"/>
</linearGradient>
<linearGradient id="paint1_linear" x1="139.851" y1="189.863" x2="336.525" y2="145.932" gradientUnits="userSpaceOnUse">
<stop stop-color="#047871"/>
<stop offset="1" stop-color="#02B1A6"/>
</linearGradient>
<linearGradient id="paint2_linear" x1="111.4" y1="100.377" x2="222.842" y2="92.6741" gradientUnits="userSpaceOnUse">
<stop stop-color="#047871"/>
<stop offset="1" stop-color="#02B1A6"/>
</linearGradient>
</defs>
</svg>
