<svg width="214" height="197" viewBox="0 0 214 197" fill="none" xmlns="http://www.w3.org/2000/svg">
<path d="M171.916 106.281C171.067 106.31 170.118 105.807 169.42 105.214C169.06 104.909 168.737 104.554 168.503 104.185C168.274 103.823 168.102 103.402 168.114 102.976L168.114 102.975C168.281 97.4926 168.294 92.0102 168.147 86.5313L168.147 86.5306C168.136 86.1009 168.305 85.6738 168.534 85.3026C168.768 84.9242 169.089 84.5605 169.449 84.2457C170.147 83.6354 171.098 83.1157 171.957 83.1403L173.146 83.1744L173.133 83.1874C179.171 83.3631 185.204 83.5664 191.246 83.7866C195.623 83.9043 199.497 82.7097 202.134 80.7239C204.762 78.7435 206.14 76.0009 205.647 72.9515L205.647 72.9482C204.909 68.1841 203.928 63.4293 202.698 58.6676C201.849 55.5391 199.311 52.2076 195.928 49.4228C192.553 46.6438 188.395 44.4592 184.389 43.5863C178.446 42.3662 172.503 41.2745 166.561 40.3112C166.156 40.2472 165.719 40.0446 165.309 39.7935C164.89 39.5372 164.463 39.2074 164.072 38.8502C163.682 38.4933 163.32 38.1002 163.036 37.7131C162.759 37.336 162.526 36.9235 162.446 36.5312L162.446 36.5307C161.337 31.0512 160.085 25.5687 158.673 20.0866C157.672 16.4089 155.251 12.5955 152.195 9.50011C149.137 6.40169 145.492 4.07274 142.086 3.30267C136.947 2.18997 131.797 1.2889 126.65 0.596247L126.647 0.595881C123.297 0.126253 120.337 1.41223 118.242 3.8166C116.141 6.22762 114.906 9.77412 115.081 13.7966C115.404 19.7427 115.695 25.6858 115.948 31.6354L115.948 31.639C116.232 39.6422 123.198 46.3792 131.534 46.8357L131.535 46.8358C137.672 47.1801 143.809 47.6307 149.945 48.1875C150.367 48.225 150.814 48.4094 151.227 48.6469C151.648 48.8891 152.072 49.2087 152.454 49.5591C152.836 49.9093 153.186 50.3003 153.453 50.6911C153.713 51.0718 153.926 51.4967 153.973 51.9087L153.973 51.9098C154.604 57.5757 155.112 63.2418 155.493 68.908C155.523 69.3434 155.372 69.7789 155.157 70.1596C154.937 70.5465 154.628 70.9173 154.279 71.2374C153.603 71.8571 152.666 72.3852 151.806 72.3521L151.804 72.352C145.435 72.0788 139.06 71.857 132.691 71.6867L132.69 71.6866C124.115 71.4369 117.234 77.9223 117.26 85.8893C117.293 91.8332 117.286 97.7832 117.253 103.733C117.221 111.7 124.089 118.18 132.649 117.918L132.651 117.918C139.016 117.741 145.377 117.507 151.736 117.217L151.739 117.217C152.59 117.184 153.523 117.696 154.199 118.299C154.547 118.611 154.857 118.972 155.077 119.35C155.293 119.722 155.447 120.151 155.416 120.582C155.015 126.245 154.494 131.905 153.846 137.571L153.846 137.576C153.8 137.948 153.537 138.28 153.288 138.529C153.018 138.799 152.668 139.065 152.295 139.3C151.564 139.76 150.644 140.167 149.938 140.231M171.916 106.281L149.894 139.733M171.916 106.281C178.344 106.075 184.773 105.844 191.204 105.58M171.916 106.281L191.187 105.08M149.938 140.231L149.894 139.733M149.938 140.231C149.938 140.231 149.938 140.231 149.939 140.231L149.894 139.733M149.938 140.231C143.802 140.784 137.665 141.235 131.529 141.583L131.527 141.583C123.192 142.036 116.229 148.773 115.938 156.776L115.938 156.779C115.691 162.726 115.398 168.669 115.071 174.619M149.894 139.733C143.763 140.286 137.631 140.736 131.5 141.083C122.927 141.55 115.739 148.476 115.439 156.758C115.192 162.704 114.898 168.646 114.571 174.594M115.071 174.619C115.071 174.618 115.071 174.617 115.071 174.616L114.571 174.594M115.071 174.619C115.071 174.62 115.071 174.621 115.071 174.622L114.571 174.594M115.071 174.619C114.9 178.641 116.134 182.188 118.235 184.599C120.33 187.003 123.29 188.289 126.644 187.816L126.647 187.816C131.787 187.123 136.937 186.222 142.084 185.109M114.571 174.594C114.218 182.864 119.642 189.308 126.714 188.311C131.867 187.617 137.031 186.713 142.191 185.597M142.084 185.109C142.083 185.109 142.082 185.109 142.081 185.11L142.191 185.597M142.084 185.109C142.085 185.109 142.085 185.109 142.086 185.109L142.191 185.597M142.084 185.109C145.488 184.337 149.129 182.008 152.187 178.911C155.241 175.816 157.663 172.003 158.67 168.325M142.191 185.597C149.246 183.999 157.085 176.015 159.154 168.453M159.154 168.453L158.669 168.328C158.67 168.327 158.67 168.326 158.67 168.325M159.154 168.453C160.568 162.961 161.836 157.469 162.936 151.971M159.154 168.453L158.671 168.321C158.671 168.322 158.671 168.324 158.67 168.325M158.67 168.325C160.082 162.843 161.347 157.362 162.445 151.876M162.936 151.971L162.445 151.876M162.936 151.971C163.083 151.212 165.281 149.8 166.432 149.614M162.936 151.971L162.446 151.872C162.446 151.874 162.446 151.875 162.445 151.876M162.445 151.876C162.513 151.526 162.778 151.203 163.031 150.953C163.306 150.682 163.658 150.408 164.032 150.161C164.765 149.676 165.672 149.23 166.352 149.12M166.432 149.614L166.35 149.12C166.351 149.12 166.351 149.12 166.352 149.12M166.432 149.614C172.363 148.63 178.297 147.517 184.228 146.27M166.432 149.614L166.352 149.12C166.352 149.12 166.352 149.12 166.352 149.12M166.352 149.12C172.274 148.138 178.2 147.027 184.123 145.781M184.228 146.27L184.12 145.782C184.121 145.781 184.122 145.781 184.123 145.781M184.228 146.27C192.394 144.45 201.137 137.302 202.949 130.762M184.228 146.27L184.125 145.78C184.124 145.781 184.124 145.781 184.123 145.781M184.123 145.781C188.114 144.891 192.27 142.691 195.653 139.9C199.043 137.104 201.597 133.764 202.466 130.632M202.949 130.762L202.465 130.633C202.466 130.633 202.466 130.632 202.466 130.632M202.949 130.762C204.219 125.987 205.24 121.209 206.007 116.431C207.108 109.891 200.117 104.814 191.187 105.08M202.949 130.762L202.467 130.628C202.466 130.63 202.466 130.631 202.466 130.632M202.466 130.632C203.732 125.873 204.749 121.112 205.514 116.352L205.514 116.348C206.027 113.3 204.669 110.569 202.058 108.602C199.439 106.63 195.576 105.45 191.204 105.58M191.204 105.58C191.205 105.58 191.206 105.58 191.207 105.58L191.187 105.08M191.204 105.58C191.203 105.58 191.203 105.58 191.202 105.58L191.187 105.08M33.0998 83.1745L34.2892 83.1403C35.1465 83.1157 36.0982 83.6355 36.7956 84.2457C37.1554 84.5605 37.4772 84.9243 37.7103 85.3028C37.939 85.6742 38.1079 86.1017 38.0957 86.532C37.9492 92.0107 37.9625 97.4929 38.129 102.975L38.129 102.976C38.1414 103.402 37.9697 103.823 37.7406 104.185C37.5066 104.554 37.1843 104.908 36.825 105.214C36.128 105.807 35.1794 106.31 34.33 106.281C27.9087 106.075 21.4805 105.844 15.0488 105.58C10.6716 105.45 6.80769 106.63 4.18817 108.602C1.5767 110.569 0.219009 113.3 0.732003 116.348L0.732629 116.352C1.49695 121.112 2.5139 125.872 3.78027 130.631C4.65019 133.763 7.2052 137.103 10.596 139.9C13.9792 142.691 18.135 144.891 22.1265 145.781C28.0558 147.027 33.9751 148.138 39.8978 149.12C40.5774 149.23 41.4844 149.676 42.2165 150.161C42.5901 150.408 42.9419 150.682 43.216 150.953C43.4679 151.202 43.7321 151.524 43.8005 151.874C44.8991 157.361 46.1642 162.842 47.5759 168.324C48.5827 172.003 51.0032 175.816 54.0568 178.911C57.113 182.008 60.7539 184.337 64.1593 185.109C69.3062 186.222 74.453 187.123 79.5962 187.816L79.5993 187.816C82.9528 188.289 85.9132 187.003 88.0081 184.599C90.1087 182.188 91.3435 178.641 91.1722 174.619C90.8452 168.669 90.555 162.726 90.3047 156.779L90.3046 156.776C90.0145 148.773 83.0514 142.036 74.7156 141.583L74.7145 141.583C68.5711 141.235 62.4412 140.784 56.3013 140.231C56.3013 140.231 56.3013 140.231 56.3012 140.231L56.3461 139.733C55.1652 139.627 52.987 138.296 52.8903 137.514L33.0998 83.1745ZM33.0998 83.1745L33.1132 83.1874M33.0998 83.1745L33.1132 83.1874M33.1132 83.1874C27.0751 83.3631 21.0421 83.5664 15.0007 83.7866C10.6237 83.9043 6.74887 82.7097 4.11278 80.7239C1.48393 78.7435 0.106305 76.0009 0.599116 72.9515L0.599617 72.9482C1.33741 68.1846 2.32117 63.4301 3.55103 58.6685C4.39811 55.5399 6.9369 52.208 10.3216 49.4228C13.6988 46.6438 17.8584 44.4592 21.8645 43.5863C27.8006 42.3662 33.7432 41.2745 39.6859 40.3112C40.0902 40.2471 40.5275 40.0445 40.9376 39.7935C41.3563 39.5372 41.7838 39.2074 42.174 38.8502C42.5641 38.4933 42.9266 38.1002 43.2106 37.7131C43.4872 37.336 43.7202 36.9235 43.8 36.5312L43.8001 36.5307C44.909 31.0514 46.161 25.5693 47.5727 20.0874C48.5778 16.4092 50.9975 12.5954 54.051 9.49999C57.1073 6.4017 60.7491 4.07288 64.1562 3.30275C69.303 2.18999 74.4497 1.2889 79.5929 0.596248L79.5955 0.595883C82.9492 0.126219 85.9099 1.41231 88.0047 3.8166C90.1054 6.22753 91.3401 9.77393 91.1688 13.7964C90.8419 19.7427 90.5516 25.6858 90.2947 31.6351L90.2946 31.639C90.011 39.6423 83.0481 46.3793 74.712 46.8357L74.7116 46.8358C68.5746 47.1769 62.4443 47.6275 56.3007 48.1875M56.3007 48.1875C56.3012 48.1875 56.3017 48.1874 56.3022 48.1874L56.3461 48.6855L56.3007 48.1875ZM90.8043 156.758C90.5041 148.476 83.3156 141.55 74.7427 141.083L79.5295 188.311C86.6013 189.308 92.0252 182.864 91.6716 174.594C91.3447 168.646 91.0545 162.704 90.8043 156.758Z" stroke="#CAC9C9"/>
<path d="M179.67 114.035C178.821 114.063 177.872 113.561 177.174 112.968C176.814 112.662 176.491 112.308 176.257 111.938C176.028 111.577 175.856 111.156 175.868 110.73L175.868 110.729C176.034 105.246 176.048 99.7639 175.901 94.2849L175.901 94.2843C175.89 93.8545 176.059 93.4275 176.288 93.0563C176.521 92.6779 176.843 92.3142 177.203 91.9994C177.901 91.3891 178.852 90.8694 179.711 90.894L180.9 90.928L180.887 90.9411C186.925 91.1168 192.958 91.32 199 91.5403C203.377 91.658 207.251 90.4634 209.887 88.4775C212.516 86.4972 213.894 83.7546 213.401 80.7051L213.401 80.7019C212.663 75.9378 211.682 71.183 210.452 66.4213C209.603 63.2928 207.065 59.9612 203.682 57.1764C200.306 54.3975 196.149 52.2129 192.143 51.34C186.2 50.1198 180.257 49.0281 174.315 48.0649C173.91 48.0009 173.473 47.7982 173.063 47.5471C172.644 47.2908 172.217 46.961 171.826 46.6039C171.436 46.2469 171.074 45.8539 170.79 45.4667C170.513 45.0897 170.28 44.6772 170.2 44.2849L170.2 44.2844C169.091 38.8048 167.839 33.3224 166.427 27.8403C165.426 24.1626 163.005 20.3492 159.949 17.2538C156.89 14.1554 153.246 11.8264 149.84 11.0563C144.7 9.94363 139.551 9.04256 134.404 8.34991L134.401 8.34954C131.051 7.87992 128.09 9.16589 125.996 11.5703C123.895 13.9813 122.66 17.5278 122.835 21.5502C123.158 27.4964 123.449 33.4395 123.702 39.3891L123.702 39.3926C123.986 47.3958 130.952 54.1329 139.288 54.5894L139.289 54.5894C145.426 54.9338 151.563 55.3844 157.699 55.9412C158.121 55.9787 158.568 56.1631 158.981 56.4005C159.402 56.6428 159.826 56.9623 160.208 57.3127C160.59 57.6629 160.94 58.054 161.207 58.4448C161.467 58.8254 161.68 59.2503 161.727 59.6623L161.727 59.6635C162.358 65.3294 162.866 70.9955 163.247 76.6617C163.277 77.097 163.126 77.5326 162.911 77.9133C162.691 78.3001 162.382 78.671 162.033 78.9911C161.357 79.6108 160.42 80.1389 159.56 80.1057L159.557 80.1056C153.189 79.8325 146.814 79.6107 140.445 79.4403L140.444 79.4403C131.869 79.1906 124.988 85.6759 125.014 93.6429C125.047 99.5868 125.04 105.537 125.007 111.486C124.975 119.453 131.843 125.934 140.403 125.672L140.405 125.672C146.769 125.495 153.131 125.26 159.489 124.971L159.493 124.971C160.344 124.938 161.277 125.45 161.953 126.053C162.301 126.365 162.611 126.726 162.831 127.104C163.047 127.476 163.201 127.904 163.17 128.335C162.769 133.998 162.248 139.658 161.6 145.325L161.6 145.329C161.553 145.702 161.291 146.034 161.042 146.283C160.772 146.553 160.422 146.818 160.049 147.053C159.318 147.514 158.398 147.921 157.692 147.984M179.67 114.035L157.648 147.486M179.67 114.035C186.098 113.829 192.526 113.597 198.958 113.334M179.67 114.035L198.941 112.834M157.692 147.984L157.648 147.486M157.692 147.984C157.692 147.984 157.692 147.984 157.692 147.984L157.648 147.486M157.692 147.984C151.556 148.538 145.419 148.989 139.283 149.336L139.281 149.336C130.946 149.79 123.982 156.526 123.692 164.53L123.692 164.533C123.445 170.48 123.152 176.423 122.825 182.372M157.648 147.486C151.516 148.04 145.385 148.49 139.254 148.837C130.681 149.303 123.493 156.229 123.193 164.512C122.946 170.457 122.652 176.399 122.325 182.348M122.825 182.372C122.825 182.371 122.825 182.37 122.825 182.369L122.325 182.348M122.825 182.372C122.825 182.373 122.825 182.374 122.825 182.375L122.325 182.348M122.825 182.372C122.653 186.395 123.888 189.942 125.989 192.353C128.084 194.757 131.044 196.042 134.398 195.57L134.401 195.569C139.541 194.877 144.691 193.975 149.838 192.863M122.325 182.348C121.972 190.618 127.396 197.062 134.467 196.065C139.621 195.37 144.785 194.467 149.945 193.351M149.838 192.863C149.837 192.863 149.836 192.863 149.835 192.863L149.945 193.351M149.838 192.863C149.838 192.863 149.839 192.862 149.84 192.862L149.945 193.351M149.838 192.863C153.242 192.091 156.883 189.762 159.941 186.664C162.995 183.569 165.417 179.757 166.424 176.079M149.945 193.351C157 191.753 164.839 183.769 166.908 176.206M166.908 176.206L166.423 176.082C166.424 176.081 166.424 176.08 166.424 176.079M166.908 176.206C168.322 170.715 169.589 165.223 170.69 159.724M166.908 176.206L166.425 176.075C166.425 176.076 166.424 176.077 166.424 176.079M166.424 176.079C167.836 170.597 169.101 165.116 170.199 159.629M170.69 159.724L170.199 159.629M170.69 159.724C170.837 158.965 173.035 157.554 174.186 157.367M170.69 159.724L170.2 159.626C170.2 159.627 170.2 159.628 170.199 159.629M170.199 159.629C170.267 159.279 170.532 158.956 170.785 158.707C171.059 158.435 171.412 158.162 171.786 157.914C172.519 157.429 173.426 156.984 174.106 156.874M174.186 157.367L174.104 156.874C174.105 156.874 174.105 156.874 174.106 156.874M174.186 157.367C180.117 156.383 186.051 155.271 191.982 154.023M174.186 157.367L174.106 156.874C174.106 156.874 174.106 156.874 174.106 156.874M174.106 156.874C180.028 155.891 185.954 154.78 191.876 153.535M191.982 154.023L191.874 153.535C191.874 153.535 191.875 153.535 191.876 153.535M191.982 154.023C200.148 152.203 208.891 145.056 210.702 138.516M191.982 154.023L191.879 153.534C191.878 153.534 191.877 153.535 191.876 153.535M191.876 153.535C195.868 152.644 200.024 150.445 203.407 147.654C206.797 144.857 209.351 141.517 210.22 138.385M210.702 138.516L210.219 138.387C210.219 138.386 210.22 138.386 210.22 138.385M210.702 138.516C211.973 133.741 212.994 128.963 213.761 124.184C214.862 117.644 207.87 112.567 198.941 112.834M210.702 138.516L210.221 138.382C210.22 138.383 210.22 138.384 210.22 138.385M210.22 138.385C211.486 133.627 212.503 128.866 213.268 124.105L213.268 124.101C213.781 121.054 212.423 118.323 209.812 116.356C207.192 114.383 203.33 113.204 198.958 113.334M198.958 113.334C198.959 113.334 198.96 113.334 198.961 113.334L198.941 112.834M198.958 113.334C198.957 113.334 198.956 113.334 198.956 113.334L198.941 112.834M40.8537 90.9281L42.0431 90.894C42.9004 90.8694 43.8521 91.3892 44.5495 91.9994C44.9093 92.3142 45.2311 92.6779 45.4642 93.0564C45.6929 93.4278 45.8618 93.8553 45.8496 94.2857C45.7031 99.7644 45.7164 105.247 45.8829 110.729L45.8829 110.73C45.8953 111.156 45.7236 111.576 45.4945 111.938C45.2606 112.308 44.9382 112.662 44.5789 112.968C43.8819 113.561 42.9333 114.063 42.0839 114.035C35.6626 113.829 29.2344 113.597 22.8027 113.334C18.4255 113.204 14.5616 114.384 11.9421 116.356C9.3306 118.323 7.97292 121.054 8.48591 124.101L8.48653 124.105C9.25086 128.865 10.2678 133.626 11.5342 138.384C12.4041 141.517 14.9591 144.857 18.3499 147.654C21.7331 150.444 25.8889 152.644 29.8804 153.535C35.8097 154.78 41.729 155.891 47.6517 156.874C48.3313 156.984 49.2383 157.429 49.9704 157.914C50.344 158.162 50.6958 158.435 50.9699 158.707C51.2218 158.956 51.4861 159.278 51.5544 159.627C52.653 165.114 53.9181 170.596 55.3298 176.078C56.3366 179.756 58.7571 183.569 61.8107 186.664C64.8669 189.762 68.5078 192.091 71.9132 192.863C77.0601 193.975 82.2069 194.877 87.3501 195.569L87.3532 195.57C90.7067 196.042 93.6671 194.757 95.762 192.353C97.8626 189.942 99.0974 186.395 98.9261 182.372C98.5991 176.423 98.3089 170.48 98.0586 164.533L98.0585 164.53C97.7684 156.526 90.8053 149.79 82.4695 149.336L82.4684 149.336C76.325 148.989 70.1951 148.538 64.0553 147.984C64.0552 147.984 64.0552 147.984 64.0551 147.984L64.1 147.486C62.9192 147.38 60.7409 146.049 60.6442 145.268L40.8537 90.9281ZM40.8537 90.9281L40.8671 90.9411M40.8537 90.9281L40.8671 90.9411M40.8671 90.9411C34.829 91.1168 28.796 91.32 22.7546 91.5403C18.3776 91.658 14.5028 90.4634 11.8667 88.4775C9.23783 86.4972 7.86021 83.7546 8.35302 80.7051L8.35352 80.7019C9.09132 75.9383 10.0751 71.1838 11.3049 66.4222C12.152 63.2936 14.6908 59.9617 18.0755 57.1765C21.4527 54.3975 25.6123 52.2129 29.6184 51.34C35.5545 50.1198 41.4972 49.0281 47.4398 48.0648C47.8441 48.0008 48.2814 47.7982 48.6915 47.5471C49.1102 47.2908 49.5377 46.961 49.9279 46.6039C50.318 46.2469 50.6805 45.8539 50.9645 45.4667C51.2411 45.0897 51.4741 44.6772 51.5539 44.2849L51.554 44.2844C52.6629 38.8051 53.9149 33.3229 55.3266 27.8411C56.3317 24.1628 58.7514 20.3491 61.8049 17.2537C64.8612 14.1554 68.503 11.8265 71.9101 11.0564C77.0569 9.94365 82.2036 9.04256 87.3468 8.34991L87.3494 8.34954C90.7031 7.87988 93.6638 9.16597 95.7586 11.5703C97.8593 13.9812 99.094 17.5276 98.9227 21.5501C98.5958 27.4964 98.3055 33.4394 98.0486 39.3888L98.0485 39.3926C97.7649 47.396 90.802 54.1329 82.4659 54.5894L82.4655 54.5894C76.3285 54.9306 70.1982 55.3812 64.0546 55.9412M64.0546 55.9412C64.0551 55.9411 64.0556 55.9411 64.0561 55.9411L64.1 56.4391L64.0546 55.9412ZM98.5582 164.512C98.258 156.229 91.0695 149.303 82.4966 148.837L87.2834 196.065C94.3552 197.062 99.7791 190.618 99.4255 182.348C99.0986 176.399 98.8084 170.457 98.5582 164.512Z" stroke="#CAC9C9"/>
</svg>
