<svg width="228" height="42" viewBox="0 0 228 42" fill="none" xmlns="http://www.w3.org/2000/svg">
<mask id="path-1-inside-1" fill="white">
<path d="M76.4683 29.3629C75.6513 30.0186 74.6962 30.5319 73.604 30.8986C72.5118 31.267 71.4903 31.4507 70.5438 31.4507C69.122 31.4507 67.9237 31.1945 66.9496 30.6829C65.9747 30.1704 65.1983 29.4811 64.6202 28.614C64.0396 27.7453 63.6246 26.735 63.3753 25.5789C63.1251 24.4228 63 23.1891 63 21.8751C63 20.3765 63.1432 18.9936 63.4314 17.7167C63.7213 16.4424 64.182 15.3398 64.8143 14.4064C65.4467 13.4746 66.2689 12.7387 67.2818 12.1994C68.2964 11.6611 69.5405 11.3919 71.0158 11.3919C71.7267 11.3919 72.5635 11.4782 73.5246 11.6473C74.4849 11.8198 75.4123 12.1391 76.3078 12.6136V6.03255H73.1985V3H80.4835V28.1783H83.3979V31.1341H76.546V29.4L76.4683 29.3603V29.3629ZM71.8405 14.6255C71.234 14.6255 70.6534 14.7307 70.1004 14.9413C69.5474 15.1518 69.0565 15.5279 68.6354 16.0663C68.2127 16.6046 67.8762 17.3405 67.626 18.2732C67.3758 19.2067 67.2516 20.3955 67.2516 21.8406C67.2516 23.1002 67.3638 24.1442 67.5863 24.9724C67.8107 25.8006 68.1213 26.4563 68.5155 26.9438C68.9107 27.4303 69.3783 27.772 69.9201 27.9687C70.461 28.1654 71.0477 28.2638 71.6801 28.2638C72.5238 28.2638 73.3866 28.074 74.2683 27.6926C75.1535 27.3113 75.8299 26.911 76.307 26.4908V15.8894C76.0956 15.7307 75.8195 15.5788 75.4762 15.4356C75.1328 15.2915 74.7575 15.1595 74.3494 15.0413C73.9405 14.9231 73.5186 14.8256 73.0838 14.7454C72.6481 14.6678 72.2322 14.6272 71.8371 14.6272L71.8405 14.6255ZM85.0509 14.9016V11.9078H91.2333V28.1016H94.0683V30.6242C93.5161 30.8856 92.8803 31.0815 92.159 31.2135C91.4361 31.3446 90.8132 31.4119 90.2886 31.4119C89.1584 31.4119 88.344 31.1807 87.847 30.7217C87.3467 30.2619 87.0835 29.4552 87.0576 28.2974V14.9042H85.0492L85.0509 14.9016ZM91.6267 6.50965C91.6267 7.21882 91.3705 7.82965 90.8589 8.34212C90.3473 8.85459 89.7235 9.10996 88.9885 9.10996C88.2793 9.10996 87.6754 8.85372 87.1767 8.34212C86.6789 7.82965 86.4296 7.21882 86.4296 6.50965C86.4296 5.77459 86.6798 5.15686 87.1776 4.65733C87.6762 4.16039 88.2801 3.9102 88.9893 3.9102C89.7227 3.9102 90.3464 4.16039 90.8589 4.65906C91.3705 5.15945 91.6267 5.77718 91.6267 6.51224V6.50965ZM104.384 23.6489L100.959 28.1809H103.164V31.1367H94.856L94.8957 28.1809H96.666L102.376 20.6147L98.5969 14.8619H95.3685V11.9035H101.157L105.37 18.2878L107.892 14.8584H105.963V11.9035H114.508V14.8602H112.225L107.303 21.2039L111.949 28.1792H114.744V31.135H105.845V28.1809H107.38L104.387 23.6489H104.384ZM117.063 14.9033V11.9078H123.245V28.1033H126.079V30.6251C125.527 30.8865 124.891 31.0823 124.169 31.2143C123.447 31.3455 122.824 31.4128 122.3 31.4128C121.17 31.4128 120.357 31.1816 119.858 30.7226C119.36 30.2627 119.097 29.4561 119.071 28.2983V14.9042H117.063V14.9033ZM123.64 6.51051C123.64 7.21969 123.384 7.83051 122.872 8.34298C122.359 8.85545 121.736 9.11082 121 9.11082C120.292 9.11082 119.688 8.85459 119.19 8.34298C118.691 7.83051 118.442 7.21969 118.442 6.51051C118.442 5.77545 118.692 5.15773 119.192 4.6582C119.69 4.16126 120.294 3.91106 121.004 3.91106C121.737 3.91106 122.36 4.16125 122.873 4.65992C123.384 5.16031 123.641 5.77804 123.641 6.5131L123.64 6.51051Z"/>
</mask>
<path d="M76.4683 29.3629C75.6513 30.0186 74.6962 30.5319 73.604 30.8986C72.5118 31.267 71.4903 31.4507 70.5438 31.4507C69.122 31.4507 67.9237 31.1945 66.9496 30.6829C65.9747 30.1704 65.1983 29.4811 64.6202 28.614C64.0396 27.7453 63.6246 26.735 63.3753 25.5789C63.1251 24.4228 63 23.1891 63 21.8751C63 20.3765 63.1432 18.9936 63.4314 17.7167C63.7213 16.4424 64.182 15.3398 64.8143 14.4064C65.4467 13.4746 66.2689 12.7387 67.2818 12.1994C68.2964 11.6611 69.5405 11.3919 71.0158 11.3919C71.7267 11.3919 72.5635 11.4782 73.5246 11.6473C74.4849 11.8198 75.4123 12.1391 76.3078 12.6136V6.03255H73.1985V3H80.4835V28.1783H83.3979V31.1341H76.546V29.4L76.4683 29.3603V29.3629ZM71.8405 14.6255C71.234 14.6255 70.6534 14.7307 70.1004 14.9413C69.5474 15.1518 69.0565 15.5279 68.6354 16.0663C68.2127 16.6046 67.8762 17.3405 67.626 18.2732C67.3758 19.2067 67.2516 20.3955 67.2516 21.8406C67.2516 23.1002 67.3638 24.1442 67.5863 24.9724C67.8107 25.8006 68.1213 26.4563 68.5155 26.9438C68.9107 27.4303 69.3783 27.772 69.9201 27.9687C70.461 28.1654 71.0477 28.2638 71.6801 28.2638C72.5238 28.2638 73.3866 28.074 74.2683 27.6926C75.1535 27.3113 75.8299 26.911 76.307 26.4908V15.8894C76.0956 15.7307 75.8195 15.5788 75.4762 15.4356C75.1328 15.2915 74.7575 15.1595 74.3494 15.0413C73.9405 14.9231 73.5186 14.8256 73.0838 14.7454C72.6481 14.6678 72.2322 14.6272 71.8371 14.6272L71.8405 14.6255ZM85.0509 14.9016V11.9078H91.2333V28.1016H94.0683V30.6242C93.5161 30.8856 92.8803 31.0815 92.159 31.2135C91.4361 31.3446 90.8132 31.4119 90.2886 31.4119C89.1584 31.4119 88.344 31.1807 87.847 30.7217C87.3467 30.2619 87.0835 29.4552 87.0576 28.2974V14.9042H85.0492L85.0509 14.9016ZM91.6267 6.50965C91.6267 7.21882 91.3705 7.82965 90.8589 8.34212C90.3473 8.85459 89.7235 9.10996 88.9885 9.10996C88.2793 9.10996 87.6754 8.85372 87.1767 8.34212C86.6789 7.82965 86.4296 7.21882 86.4296 6.50965C86.4296 5.77459 86.6798 5.15686 87.1776 4.65733C87.6762 4.16039 88.2801 3.9102 88.9893 3.9102C89.7227 3.9102 90.3464 4.16039 90.8589 4.65906C91.3705 5.15945 91.6267 5.77718 91.6267 6.51224V6.50965ZM104.384 23.6489L100.959 28.1809H103.164V31.1367H94.856L94.8957 28.1809H96.666L102.376 20.6147L98.5969 14.8619H95.3685V11.9035H101.157L105.37 18.2878L107.892 14.8584H105.963V11.9035H114.508V14.8602H112.225L107.303 21.2039L111.949 28.1792H114.744V31.135H105.845V28.1809H107.38L104.387 23.6489H104.384ZM117.063 14.9033V11.9078H123.245V28.1033H126.079V30.6251C125.527 30.8865 124.891 31.0823 124.169 31.2143C123.447 31.3455 122.824 31.4128 122.3 31.4128C121.17 31.4128 120.357 31.1816 119.858 30.7226C119.36 30.2627 119.097 29.4561 119.071 28.2983V14.9042H117.063V14.9033ZM123.64 6.51051C123.64 7.21969 123.384 7.83051 122.872 8.34298C122.359 8.85545 121.736 9.11082 121 9.11082C120.292 9.11082 119.688 8.85459 119.19 8.34298C118.691 7.83051 118.442 7.21969 118.442 6.51051C118.442 5.77545 118.692 5.15773 119.192 4.6582C119.69 4.16126 120.294 3.91106 121.004 3.91106C121.737 3.91106 122.36 4.16125 122.873 4.65992C123.384 5.16031 123.641 5.77804 123.641 6.5131L123.64 6.51051Z" fill="white" stroke="url(#paint0_linear)" stroke-width="2" mask="url(#path-1-inside-1)"/>
<mask id="path-2-inside-2" fill="white">
<path d="M145.349 14.2716C145.768 14.7444 146.089 15.3501 146.313 16.0834C146.535 16.8202 146.648 17.5561 146.648 18.292C146.648 19.3687 146.432 20.3143 145.998 21.1287C145.564 21.9432 144.975 22.6325 144.227 23.1976C143.479 23.7627 142.591 24.1984 141.567 24.5003C140.543 24.8023 139.427 24.9524 138.219 24.9524H136.054C135.135 24.9524 134.439 25.043 133.966 25.2233C133.494 25.4045 133.259 25.7539 133.259 26.2707C133.259 27.073 133.863 27.4742 135.07 27.4742H140.268C142.657 27.4742 144.521 27.9556 145.858 28.9176C147.199 29.8796 147.868 31.3221 147.868 33.246C147.868 34.1691 147.665 35.0181 147.256 35.7963C146.85 36.5727 146.221 37.2526 145.366 37.8323C144.515 38.4121 143.451 38.8676 142.179 39.1972C140.904 39.525 139.402 39.6907 137.67 39.6907C136.015 39.6907 134.643 39.5397 133.555 39.2378C132.465 38.9341 131.592 38.5389 130.936 38.0541C130.28 37.5675 129.82 36.9955 129.557 36.3372C129.295 35.6798 129.164 34.9965 129.164 34.2873C129.164 33.183 129.432 32.2366 129.972 31.4489C130.51 30.6595 131.081 30.0944 131.685 29.7519C130.923 29.594 130.348 29.2532 129.953 28.7287C129.558 28.2024 129.362 27.5614 129.362 26.8004C129.362 26.25 129.468 25.7841 129.678 25.4028C129.889 25.0232 130.151 24.7014 130.466 24.4391C130.779 24.1768 131.127 23.9672 131.51 23.8093C131.889 23.6514 132.262 23.5332 132.631 23.4556C131.921 23.1398 131.292 22.5816 130.742 21.7801C130.19 20.9778 129.914 19.8691 129.914 18.4499C129.914 17.1903 130.15 16.1119 130.623 15.2189C131.096 14.3269 131.719 13.597 132.493 13.0327C133.268 12.4676 134.148 12.0544 135.133 11.7904C136.117 11.529 137.109 11.397 138.106 11.397C138.787 11.397 139.464 11.4418 140.133 11.535C140.802 11.6265 141.4 11.7386 141.925 11.8689H148.421V14.194H145.468L145.347 14.2716H145.349ZM135.346 30.3101C135.11 30.3877 134.867 30.5327 134.618 30.7414C134.368 30.9528 134.146 31.1952 133.949 31.4713C133.752 31.7474 133.595 32.0494 133.476 32.3798C133.358 32.7076 133.298 33.0303 133.298 33.3461C133.298 33.7395 133.371 34.1329 133.516 34.528C133.66 34.9214 133.915 35.2614 134.284 35.5512C134.651 35.8394 135.157 36.0775 135.8 36.2587C136.443 36.4425 137.276 36.5348 138.301 36.5348C140.033 36.5348 141.337 36.2397 142.217 35.6487C143.097 35.0578 143.537 34.289 143.537 33.3435C143.537 32.9759 143.472 32.6153 143.341 32.2607C143.209 31.907 142.987 31.5843 142.671 31.2945C142.356 31.0063 141.943 30.7708 141.431 30.587C140.919 30.4032 140.283 30.3109 139.521 30.3109H135.347L135.346 30.3101ZM142.395 18.2515C142.395 17.8572 142.33 17.4379 142.198 16.9919C142.067 16.5432 141.845 16.1309 141.529 15.7495C141.213 15.3699 140.787 15.0541 140.249 14.804C139.71 14.5538 139.034 14.4295 138.221 14.4295C136.882 14.4295 135.871 14.7781 135.189 15.4734C134.505 16.1697 134.165 17.1083 134.165 18.2912C134.165 19.4472 134.492 20.3531 135.148 21.0105C135.804 21.6662 136.724 21.9958 137.905 21.9958C139.191 21.9958 140.261 21.6878 141.115 21.0701C141.969 20.4532 142.395 19.5137 142.395 18.2523V18.2515ZM156.453 14.6262C156.846 14.2846 157.318 13.924 157.869 13.5435C158.421 13.1639 159.011 12.8162 159.641 12.4996C160.271 12.1855 160.915 11.9215 161.57 11.7127C162.226 11.5022 162.856 11.397 163.46 11.397C163.828 11.397 164.104 11.4962 164.288 11.6938C164.471 11.8905 164.564 12.239 164.564 12.7377C164.564 13.264 164.458 13.8938 164.248 14.6288C164.037 15.3647 163.709 15.9687 163.264 16.4406L156.411 16.4811V28.1834H159.284V31.1392H149.52V28.1834H152.237V14.9058H149.597V11.8689H156.332V14.5883L156.449 14.628L156.453 14.6262ZM183.267 21.5213C183.267 22.8085 183.109 24.0491 182.794 25.2449C182.479 26.4407 181.961 27.4967 181.238 28.4163C180.514 29.336 179.57 30.0711 178.402 30.6232C177.233 31.1754 175.783 31.4515 174.051 31.4515C172.422 31.4515 171.05 31.1883 169.936 30.6629C168.818 30.1384 167.913 29.4206 167.218 28.5147C166.523 27.6088 166.019 26.5649 165.701 25.3829C165.386 24.201 165.229 22.9414 165.229 21.6007C165.229 20.2867 165.398 19.0193 165.74 17.7977C166.081 16.576 166.62 15.4993 167.353 14.5667C168.089 13.6349 169.034 12.8843 170.189 12.321C171.345 11.7559 172.734 11.4738 174.363 11.4738C176.017 11.4738 177.415 11.7559 178.556 12.321C179.698 12.8861 180.618 13.628 181.314 14.5469C182.007 15.4665 182.507 16.5372 182.809 17.7589C183.111 18.9805 183.262 20.2349 183.262 21.5204L183.267 21.5213ZM178.975 21.6007C178.975 20.7871 178.914 19.9649 178.798 19.1375C178.68 18.3093 178.456 17.5621 178.128 16.8918C177.8 16.2214 177.341 15.6771 176.75 15.2569C176.16 14.8367 175.392 14.6271 174.446 14.6271C173.475 14.6271 172.674 14.8307 172.044 15.2371C171.414 15.6451 170.914 16.1774 170.548 16.8331C170.18 17.4905 169.924 18.2308 169.78 19.059C169.635 19.8872 169.565 20.7345 169.565 21.6015C169.565 22.4962 169.623 23.3503 169.741 24.1639C169.859 24.9783 170.088 25.6944 170.431 26.3121C170.771 26.929 171.25 27.4216 171.867 27.7891C172.483 28.1575 173.305 28.3413 174.328 28.3413C175.272 28.3413 176.045 28.1446 176.649 27.7503C177.253 27.3569 177.727 26.8444 178.067 26.2146C178.408 25.5831 178.645 24.8687 178.776 24.0664C178.907 23.264 178.973 22.4444 178.973 21.6041L178.975 21.6007ZM193.268 31.5697C192.034 31.5697 191.042 31.3971 190.295 31.0572C189.547 30.7173 188.969 30.2574 188.562 29.6794C188.155 29.1014 187.879 28.4457 187.736 27.7089C187.591 26.973 187.52 26.2103 187.52 25.4226V14.9014H184.723V11.8689H191.694V24.7152C191.694 25.2673 191.72 25.7522 191.772 26.1732C191.824 26.5925 191.949 26.9471 192.147 27.2361C192.345 27.5269 192.628 27.7434 192.998 27.8875C193.365 28.0324 193.866 28.1032 194.501 28.1032C195.133 28.1032 195.931 27.9461 196.894 27.6312C197.857 27.3163 198.775 26.7512 199.644 25.9368V14.9023H197.125V11.8689H203.818V28.1403H206.534V30.6224C205.801 30.9114 205.093 31.1081 204.412 31.2125C203.73 31.3186 203.168 31.3712 202.726 31.3712C201.764 31.3712 201.056 31.1935 200.602 30.8389C200.146 30.4852 199.867 29.8338 199.762 28.8891C198.583 29.9658 197.416 30.681 196.26 31.0356C195.104 31.3894 194.107 31.5679 193.266 31.5679L193.268 31.5697ZM207.167 36.3778H210.04V14.904H207.167V11.9077H213.98V13.6815L214.057 13.7212C214.845 13.0655 215.789 12.5461 216.892 12.1648C217.995 11.7852 219.018 11.5937 219.964 11.5937C221.407 11.5937 222.608 11.8499 223.566 12.3615C224.524 12.8749 225.299 13.5642 225.89 14.4321C226.48 15.2983 226.899 16.3163 227.149 17.4845C227.4 18.6535 227.525 19.8829 227.525 21.1684C227.525 22.667 227.381 24.0457 227.093 25.3061C226.804 26.5675 226.345 27.6571 225.713 28.576C225.083 29.4965 224.257 30.2178 223.233 30.7432C222.209 31.2694 220.963 31.5317 219.493 31.5317C218.809 31.5317 217.99 31.4394 217.031 31.2556C216.074 31.0727 215.135 30.7432 214.216 30.2721V36.3778H217.287V39.412H207.167V36.3778ZM218.705 28.2214C219.283 28.2214 219.847 28.123 220.398 27.9263C220.948 27.7305 221.434 27.3741 221.854 26.8634C222.274 26.3509 222.609 25.6357 222.858 24.7152C223.108 23.7972 223.233 22.6273 223.233 21.209C223.233 19.9476 223.121 18.9175 222.899 18.116C222.674 17.3137 222.372 16.677 221.993 16.2042C221.613 15.7314 221.153 15.4105 220.615 15.2379C220.078 15.068 219.493 14.9825 218.864 14.9825C218.444 14.9825 218.01 15.0343 217.563 15.1404C217.117 15.2465 216.684 15.3846 216.264 15.5545C215.844 15.7271 215.457 15.9169 215.103 16.1265C214.749 16.3371 214.456 16.5467 214.219 16.7563V26.9238C214.455 27.0817 214.743 27.2387 215.085 27.3966C215.425 27.5545 215.801 27.6925 216.206 27.8107C216.614 27.928 217.035 28.0264 217.466 28.1058C217.897 28.1834 218.312 28.224 218.707 28.224L218.705 28.2214Z"/>
</mask>
<path d="M145.349 14.2716C145.768 14.7444 146.089 15.3501 146.313 16.0834C146.535 16.8202 146.648 17.5561 146.648 18.292C146.648 19.3687 146.432 20.3143 145.998 21.1287C145.564 21.9432 144.975 22.6325 144.227 23.1976C143.479 23.7627 142.591 24.1984 141.567 24.5003C140.543 24.8023 139.427 24.9524 138.219 24.9524H136.054C135.135 24.9524 134.439 25.043 133.966 25.2233C133.494 25.4045 133.259 25.7539 133.259 26.2707C133.259 27.073 133.863 27.4742 135.07 27.4742H140.268C142.657 27.4742 144.521 27.9556 145.858 28.9176C147.199 29.8796 147.868 31.3221 147.868 33.246C147.868 34.1691 147.665 35.0181 147.256 35.7963C146.85 36.5727 146.221 37.2526 145.366 37.8323C144.515 38.4121 143.451 38.8676 142.179 39.1972C140.904 39.525 139.402 39.6907 137.67 39.6907C136.015 39.6907 134.643 39.5397 133.555 39.2378C132.465 38.9341 131.592 38.5389 130.936 38.0541C130.28 37.5675 129.82 36.9955 129.557 36.3372C129.295 35.6798 129.164 34.9965 129.164 34.2873C129.164 33.183 129.432 32.2366 129.972 31.4489C130.51 30.6595 131.081 30.0944 131.685 29.7519C130.923 29.594 130.348 29.2532 129.953 28.7287C129.558 28.2024 129.362 27.5614 129.362 26.8004C129.362 26.25 129.468 25.7841 129.678 25.4028C129.889 25.0232 130.151 24.7014 130.466 24.4391C130.779 24.1768 131.127 23.9672 131.51 23.8093C131.889 23.6514 132.262 23.5332 132.631 23.4556C131.921 23.1398 131.292 22.5816 130.742 21.7801C130.19 20.9778 129.914 19.8691 129.914 18.4499C129.914 17.1903 130.15 16.1119 130.623 15.2189C131.096 14.3269 131.719 13.597 132.493 13.0327C133.268 12.4676 134.148 12.0544 135.133 11.7904C136.117 11.529 137.109 11.397 138.106 11.397C138.787 11.397 139.464 11.4418 140.133 11.535C140.802 11.6265 141.4 11.7386 141.925 11.8689H148.421V14.194H145.468L145.347 14.2716H145.349ZM135.346 30.3101C135.11 30.3877 134.867 30.5327 134.618 30.7414C134.368 30.9528 134.146 31.1952 133.949 31.4713C133.752 31.7474 133.595 32.0494 133.476 32.3798C133.358 32.7076 133.298 33.0303 133.298 33.3461C133.298 33.7395 133.371 34.1329 133.516 34.528C133.66 34.9214 133.915 35.2614 134.284 35.5512C134.651 35.8394 135.157 36.0775 135.8 36.2587C136.443 36.4425 137.276 36.5348 138.301 36.5348C140.033 36.5348 141.337 36.2397 142.217 35.6487C143.097 35.0578 143.537 34.289 143.537 33.3435C143.537 32.9759 143.472 32.6153 143.341 32.2607C143.209 31.907 142.987 31.5843 142.671 31.2945C142.356 31.0063 141.943 30.7708 141.431 30.587C140.919 30.4032 140.283 30.3109 139.521 30.3109H135.347L135.346 30.3101ZM142.395 18.2515C142.395 17.8572 142.33 17.4379 142.198 16.9919C142.067 16.5432 141.845 16.1309 141.529 15.7495C141.213 15.3699 140.787 15.0541 140.249 14.804C139.71 14.5538 139.034 14.4295 138.221 14.4295C136.882 14.4295 135.871 14.7781 135.189 15.4734C134.505 16.1697 134.165 17.1083 134.165 18.2912C134.165 19.4472 134.492 20.3531 135.148 21.0105C135.804 21.6662 136.724 21.9958 137.905 21.9958C139.191 21.9958 140.261 21.6878 141.115 21.0701C141.969 20.4532 142.395 19.5137 142.395 18.2523V18.2515ZM156.453 14.6262C156.846 14.2846 157.318 13.924 157.869 13.5435C158.421 13.1639 159.011 12.8162 159.641 12.4996C160.271 12.1855 160.915 11.9215 161.57 11.7127C162.226 11.5022 162.856 11.397 163.46 11.397C163.828 11.397 164.104 11.4962 164.288 11.6938C164.471 11.8905 164.564 12.239 164.564 12.7377C164.564 13.264 164.458 13.8938 164.248 14.6288C164.037 15.3647 163.709 15.9687 163.264 16.4406L156.411 16.4811V28.1834H159.284V31.1392H149.52V28.1834H152.237V14.9058H149.597V11.8689H156.332V14.5883L156.449 14.628L156.453 14.6262ZM183.267 21.5213C183.267 22.8085 183.109 24.0491 182.794 25.2449C182.479 26.4407 181.961 27.4967 181.238 28.4163C180.514 29.336 179.57 30.0711 178.402 30.6232C177.233 31.1754 175.783 31.4515 174.051 31.4515C172.422 31.4515 171.05 31.1883 169.936 30.6629C168.818 30.1384 167.913 29.4206 167.218 28.5147C166.523 27.6088 166.019 26.5649 165.701 25.3829C165.386 24.201 165.229 22.9414 165.229 21.6007C165.229 20.2867 165.398 19.0193 165.74 17.7977C166.081 16.576 166.62 15.4993 167.353 14.5667C168.089 13.6349 169.034 12.8843 170.189 12.321C171.345 11.7559 172.734 11.4738 174.363 11.4738C176.017 11.4738 177.415 11.7559 178.556 12.321C179.698 12.8861 180.618 13.628 181.314 14.5469C182.007 15.4665 182.507 16.5372 182.809 17.7589C183.111 18.9805 183.262 20.2349 183.262 21.5204L183.267 21.5213ZM178.975 21.6007C178.975 20.7871 178.914 19.9649 178.798 19.1375C178.68 18.3093 178.456 17.5621 178.128 16.8918C177.8 16.2214 177.341 15.6771 176.75 15.2569C176.16 14.8367 175.392 14.6271 174.446 14.6271C173.475 14.6271 172.674 14.8307 172.044 15.2371C171.414 15.6451 170.914 16.1774 170.548 16.8331C170.18 17.4905 169.924 18.2308 169.78 19.059C169.635 19.8872 169.565 20.7345 169.565 21.6015C169.565 22.4962 169.623 23.3503 169.741 24.1639C169.859 24.9783 170.088 25.6944 170.431 26.3121C170.771 26.929 171.25 27.4216 171.867 27.7891C172.483 28.1575 173.305 28.3413 174.328 28.3413C175.272 28.3413 176.045 28.1446 176.649 27.7503C177.253 27.3569 177.727 26.8444 178.067 26.2146C178.408 25.5831 178.645 24.8687 178.776 24.0664C178.907 23.264 178.973 22.4444 178.973 21.6041L178.975 21.6007ZM193.268 31.5697C192.034 31.5697 191.042 31.3971 190.295 31.0572C189.547 30.7173 188.969 30.2574 188.562 29.6794C188.155 29.1014 187.879 28.4457 187.736 27.7089C187.591 26.973 187.52 26.2103 187.52 25.4226V14.9014H184.723V11.8689H191.694V24.7152C191.694 25.2673 191.72 25.7522 191.772 26.1732C191.824 26.5925 191.949 26.9471 192.147 27.2361C192.345 27.5269 192.628 27.7434 192.998 27.8875C193.365 28.0324 193.866 28.1032 194.501 28.1032C195.133 28.1032 195.931 27.9461 196.894 27.6312C197.857 27.3163 198.775 26.7512 199.644 25.9368V14.9023H197.125V11.8689H203.818V28.1403H206.534V30.6224C205.801 30.9114 205.093 31.1081 204.412 31.2125C203.73 31.3186 203.168 31.3712 202.726 31.3712C201.764 31.3712 201.056 31.1935 200.602 30.8389C200.146 30.4852 199.867 29.8338 199.762 28.8891C198.583 29.9658 197.416 30.681 196.26 31.0356C195.104 31.3894 194.107 31.5679 193.266 31.5679L193.268 31.5697ZM207.167 36.3778H210.04V14.904H207.167V11.9077H213.98V13.6815L214.057 13.7212C214.845 13.0655 215.789 12.5461 216.892 12.1648C217.995 11.7852 219.018 11.5937 219.964 11.5937C221.407 11.5937 222.608 11.8499 223.566 12.3615C224.524 12.8749 225.299 13.5642 225.89 14.4321C226.48 15.2983 226.899 16.3163 227.149 17.4845C227.4 18.6535 227.525 19.8829 227.525 21.1684C227.525 22.667 227.381 24.0457 227.093 25.3061C226.804 26.5675 226.345 27.6571 225.713 28.576C225.083 29.4965 224.257 30.2178 223.233 30.7432C222.209 31.2694 220.963 31.5317 219.493 31.5317C218.809 31.5317 217.99 31.4394 217.031 31.2556C216.074 31.0727 215.135 30.7432 214.216 30.2721V36.3778H217.287V39.412H207.167V36.3778ZM218.705 28.2214C219.283 28.2214 219.847 28.123 220.398 27.9263C220.948 27.7305 221.434 27.3741 221.854 26.8634C222.274 26.3509 222.609 25.6357 222.858 24.7152C223.108 23.7972 223.233 22.6273 223.233 21.209C223.233 19.9476 223.121 18.9175 222.899 18.116C222.674 17.3137 222.372 16.677 221.993 16.2042C221.613 15.7314 221.153 15.4105 220.615 15.2379C220.078 15.068 219.493 14.9825 218.864 14.9825C218.444 14.9825 218.01 15.0343 217.563 15.1404C217.117 15.2465 216.684 15.3846 216.264 15.5545C215.844 15.7271 215.457 15.9169 215.103 16.1265C214.749 16.3371 214.456 16.5467 214.219 16.7563V26.9238C214.455 27.0817 214.743 27.2387 215.085 27.3966C215.425 27.5545 215.801 27.6925 216.206 27.8107C216.614 27.928 217.035 28.0264 217.466 28.1058C217.897 28.1834 218.312 28.224 218.707 28.224L218.705 28.2214Z" fill="#009E94" stroke="url(#paint1_linear)" stroke-width="4" mask="url(#path-2-inside-2)"/>
<path d="M36.6852 18.8591C36.7283 18.7325 36.7842 18.6274 36.8327 18.5487C36.9398 18.375 37.0742 18.2278 37.2081 18.1107C37.4319 17.915 37.8576 17.6301 38.3777 17.645L40.7572 17.7131L40.7485 17.7215C41.393 17.743 42.0374 17.7656 42.6822 17.7891C43.4931 17.8101 44.1491 17.5852 44.5483 17.2847C44.9329 16.9951 45.0353 16.6883 44.9893 16.4038L44.9882 16.3973C44.8286 15.3667 44.6163 14.3375 44.35 13.3061C44.226 12.8558 43.8114 12.2604 43.1343 11.7032C42.4714 11.1579 41.6716 10.7455 40.9408 10.5853C39.6292 10.3162 38.3176 10.0755 37.0063 9.863L37.1662 8.87587L37.0102 9.86362C36.7526 9.82293 36.5387 9.70976 36.4058 9.62849C36.2563 9.53701 36.1159 9.42734 35.9941 9.31596C35.8727 9.20487 35.7505 9.07444 35.6464 8.93261C35.5571 8.81107 35.4164 8.59521 35.3605 8.32056L35.3603 8.31958C35.1163 7.11481 34.8411 5.91002 34.5309 4.70585C34.3561 4.06949 33.9134 3.35048 33.3126 2.74211C32.7063 2.1282 32.0385 1.72701 31.498 1.60373C30.376 1.3611 29.252 1.1646 28.1289 1.01352L28.1235 1.01279C27.6999 0.953439 27.3297 1.10427 27.0416 1.43468C26.7419 1.77854 26.5252 2.33614 26.5544 3.0324C26.6267 4.35943 26.6915 5.68596 26.7481 7.01413L26.7484 7.0213L26.7484 7.0213C26.794 8.3079 27.946 9.47438 29.3852 9.55315L29.3866 9.55322C30.7655 9.63056 32.1444 9.73175 33.5232 9.85678C33.7995 9.88168 34.0283 9.99143 34.1714 10.0736C34.3308 10.1652 34.4777 10.2776 34.6032 10.3927C34.7281 10.5074 34.8537 10.6448 34.9585 10.7979C35.0493 10.9306 35.1896 11.168 35.224 11.4708L35.2243 11.473C35.3664 12.7481 35.4808 14.0236 35.5666 15.2992L36.6852 18.8591ZM36.6852 18.8591L35.9377 19.5793L36.6214 19.5988C36.646 20.7077 36.6408 21.8175 36.6071 22.9277L36.6071 22.929C36.5971 23.2719 36.7321 23.5433 36.8317 23.7003C36.9409 23.8725 37.0771 24.017 37.2113 24.131C37.4359 24.3218 37.8595 24.5963 38.3714 24.5797C38.372 24.5797 38.3726 24.5797 38.3732 24.5796L38.3395 23.5802M36.6852 18.8591L44.5315 24.919C44.9089 25.203 45.0084 25.504 44.9606 25.788L44.9594 25.7955C44.794 26.8247 44.5739 27.8551 44.2996 28.886M38.3395 23.5802C39.7731 23.5343 41.2068 23.4827 42.6412 23.4239M38.3395 23.5802C38.0419 23.5902 37.5992 23.2139 37.6066 22.9581L38.3395 23.5802ZM42.6412 23.4239L42.671 24.4235C42.6728 24.4235 42.6745 24.4234 42.6762 24.4233C42.6782 24.4233 42.6802 24.4232 42.6821 24.4231L42.6412 23.4239ZM42.6412 23.4239C44.6328 23.3645 46.1922 24.4962 45.9467 25.9541C45.7756 27.0192 45.5479 28.0843 45.2645 29.1487M45.2645 29.1487L44.3008 28.8817C44.3004 28.8831 44.3 28.8845 44.2996 28.886M45.2645 29.1487C44.8605 30.6066 42.9105 32.2 41.0892 32.6056L44.2996 28.886M45.2645 29.1487L44.2982 28.8914C44.2986 28.8896 44.2991 28.8878 44.2996 28.886M27.0399 23.1276C27.0353 24.3594 28.1095 25.4419 29.5581 25.3975L29.561 25.3975C30.9752 25.3582 32.3888 25.3061 33.8019 25.2418L33.8085 25.2415C34.3337 25.2212 34.7603 25.5087 34.9834 25.708C35.1167 25.827 35.2506 25.978 35.3553 26.1577C35.4524 26.3246 35.5735 26.6013 35.5493 26.9422L27.0399 23.1276ZM27.0399 23.1276C27.0474 21.7994 27.0489 20.4702 27.0414 19.1419C27.0381 17.9111 28.1145 16.8258 29.5686 16.8682L29.5709 16.8682C30.9866 16.9061 32.4037 16.9553 33.8193 17.016L33.8237 17.0162C34.3584 17.0368 34.7883 16.738 35.0099 16.5349C35.143 16.4128 35.2753 16.2592 35.3781 16.0779C35.4738 15.9092 35.5893 15.6355 35.5667 15.3012L27.0399 23.1276ZM5.24293 17.7133L7.62218 17.645C8.14221 17.6301 8.56807 17.9153 8.7915 18.1107C8.92538 18.2278 9.0599 18.3751 9.16709 18.5491C9.21538 18.6275 9.27102 18.7322 9.31402 18.8584L10.0623 19.5793L9.37782 19.5988C9.35327 20.7077 9.35842 21.8175 9.39215 22.9277L9.39219 22.929C9.40214 23.2714 9.2675 23.5426 9.16802 23.6997C9.05896 23.8719 8.92293 24.0166 8.78881 24.1306C8.56411 24.3217 8.14031 24.5966 7.62767 24.5797M5.24293 17.7133L7.66053 23.5802M5.24293 17.7133L5.25149 17.7215M5.24293 17.7133L5.25149 17.7215M7.62767 24.5797C7.62739 24.5797 7.62711 24.5796 7.62683 24.5796L7.66053 23.5802M7.62767 24.5797C7.62795 24.5797 7.62823 24.5797 7.62852 24.5797L7.66053 23.5802M7.62767 24.5797C6.19513 24.5338 4.76075 24.4822 3.32532 24.4234M7.66053 23.5802C6.22836 23.5343 4.7947 23.4827 3.3603 23.4239M3.32532 24.4234C3.32704 24.4234 3.32876 24.4235 3.33048 24.4235L3.3603 23.4239M3.32532 24.4234C3.32333 24.4233 3.32135 24.4232 3.31936 24.4231L3.3603 23.4239M3.32532 24.4234C2.51379 24.4002 1.8619 24.6228 1.46836 24.919C1.09111 25.2029 0.991545 25.5038 1.03941 25.788L1.04066 25.7955L1.04063 25.7955C1.20596 26.8246 1.426 27.8548 1.70031 28.8856C1.82804 29.3398 2.24816 29.9393 2.92842 30.5002C3.59425 31.0491 4.3949 31.4648 5.12334 31.6283C6.43152 31.9029 7.73749 32.1479 9.04424 32.3645L3.3603 23.4239M5.25149 17.7215C4.60702 17.743 3.96257 17.7656 3.31784 17.7891C2.50694 17.8101 1.85086 17.5852 1.45168 17.2847C1.06709 16.9951 0.964705 16.6883 1.01071 16.4038L1.01073 16.4038L1.01174 16.3973C1.17138 15.3671 1.3843 14.3379 1.65077 13.306C1.77426 12.8562 2.18869 12.2607 2.86641 11.7033C3.52961 11.1579 4.32988 10.7455 5.06072 10.5853C6.37039 10.3163 7.68146 10.0756 8.99246 9.8632C9.24889 9.82216 9.46179 9.70948 9.59416 9.62849C9.74368 9.53701 9.88409 9.42734 10.0059 9.31596C10.1273 9.20487 10.2495 9.07444 10.3536 8.93261C10.4429 8.81107 10.5836 8.59521 10.6395 8.32056L10.6397 8.31958C10.8837 7.11493 11.1589 5.91026 11.469 4.70621C11.6447 4.06911 12.0874 3.34997 12.6875 2.74187C13.2934 2.12805 13.9605 1.72704 14.5011 1.60377C15.6248 1.36108 16.7481 1.16458 17.8705 1.01353L17.8757 1.0128C18.3002 0.953371 18.6705 1.10443 18.9584 1.43468C19.2581 1.77845 19.4748 2.33603 19.4463 3.03253C19.3733 4.3597 19.3085 5.686 19.2512 7.01357L19.2511 7.01357L19.2509 7.0213C19.2052 8.30815 18.0537 9.4744 16.6148 9.55315L16.614 9.5532C15.2351 9.62981 13.8579 9.73097 12.4779 9.85668C12.4774 9.85673 12.4769 9.85677 12.4764 9.85682L12.5671 10.8527M5.25149 17.7215L11.7688 11.5838C11.8001 11.3222 12.2822 10.8778 12.5671 10.8527M12.5671 10.8527C13.936 10.728 15.302 10.6276 16.6694 10.5517L12.5671 10.8527ZM17.8712 40.9862L17.8773 40.987C18.3014 41.0468 18.6713 40.8961 18.9591 40.5659C19.2588 40.2222 19.4756 39.6645 19.4471 38.9679C19.3741 37.6401 19.3092 36.3134 19.2533 34.9858L19.2531 34.98C19.2064 33.6923 18.0543 32.5262 16.6159 32.448L16.6137 32.4479C15.2337 32.3699 13.8567 32.2687 12.4777 32.1445L17.8712 40.9862ZM17.8712 40.9862C16.749 40.8352 15.6257 40.6387 14.5021 40.396C13.9616 40.2724 13.2946 39.8712 12.6888 39.2575C12.0886 38.6495 11.6457 37.9306 11.4697 37.2934C11.1593 36.0881 10.8814 34.8845 10.6403 33.6809L17.8712 40.9862ZM10.8029 30.7687L10.803 30.7687C10.6553 29.4911 10.5394 28.2163 10.4492 26.9422C10.4248 26.6015 10.5457 26.3248 10.6427 26.1582C10.7474 25.9781 10.8815 25.8269 11.0147 25.708C11.2375 25.509 11.6642 25.2211 12.1894 25.2416L12.1959 25.2418L12.1959 25.2418C13.6097 25.3061 15.0233 25.3582 16.4375 25.3975L16.4404 25.3975C17.8896 25.4419 18.9631 24.3596 18.9586 23.1277C18.9511 21.7987 18.9511 20.4697 18.9586 19.1421L10.8029 30.7687ZM10.8029 30.7687L10.8039 30.7768M10.8029 30.7687L10.8039 30.7768M10.8039 30.7768C10.8532 31.1744 11.104 31.4307 11.1818 31.5085M10.8039 30.7768L11.1818 31.5085M11.1818 31.5085C11.3023 31.629 11.4377 31.7279 11.5582 31.8038M11.1818 31.5085L11.5582 31.8038M11.5582 31.8038C11.7679 31.9359 12.1145 32.1118 12.4774 32.1444L11.5582 31.8038ZM34.5303 37.2933C34.3544 37.9303 33.9112 38.6493 33.3107 39.2574C32.7046 39.8712 32.0374 40.2724 31.4971 40.396C30.3736 40.6387 29.2496 40.8352 28.128 40.9862L28.122 40.9871C27.6978 41.0468 27.3279 40.8961 27.0401 40.5659C26.7405 40.2222 26.5237 39.6645 26.5522 38.9679C26.6252 37.6405 26.6907 36.3135 26.7459 34.9852L26.7461 34.98C26.7928 33.6923 27.945 32.5262 29.3833 32.448L29.3856 32.4479C30.7641 32.3699 32.1425 32.2687 33.5209 32.1445L34.5303 37.2933ZM35.1957 30.7676C35.3417 29.4916 35.4591 28.2173 35.5493 26.9425L33.5212 32.1444C33.884 32.1118 34.2306 31.9359 34.4403 31.8038C34.5609 31.7279 34.6962 31.629 34.8167 31.5085C34.8945 31.4307 35.1453 31.1744 35.1946 30.7768L35.1946 30.7768L35.1957 30.7676Z" fill="#009E94" stroke="url(#paint2_linear)" stroke-width="2"/>
<defs>
<linearGradient id="paint0_linear" x1="68.4766" y1="12.6502" x2="123.242" y2="27.3685" gradientUnits="userSpaceOnUse">
<stop stop-color="#DEDEDE"/>
<stop offset="1" stop-color="white"/>
</linearGradient>
<linearGradient id="paint1_linear" x1="131.847" y1="39.6907" x2="228.997" y2="17.9903" gradientUnits="userSpaceOnUse">
<stop stop-color="#047871"/>
<stop offset="1" stop-color="#02B1A6"/>
</linearGradient>
<linearGradient id="paint2_linear" x1="1.25455" y1="42" x2="48.7205" y2="38.6597" gradientUnits="userSpaceOnUse">
<stop stop-color="#047871"/>
<stop offset="1" stop-color="#02B1A6"/>
</linearGradient>
</defs>
</svg>
